{
    "patcher": {
        "fileversion": 1,
        "appversion": {
            "major": 9,
            "minor": 1,
            "revision": 1,
            "architecture": "x64",
            "modernui": 1
        },
        "classnamespace": "box",
        "rect": [ 34.0, 93.0, 1276.0, 713.0 ],
        "boxes": [
            {
                "box": {
                    "id": "obj-58",
                    "maxclass": "spectroscope~",
                    "numinlets": 2,
                    "numoutlets": 1,
                    "outlettype": [ "" ],
                    "patching_rect": [ 742.0, 202.0, 300.0, 100.0 ]
                }
            },
            {
                "box": {
                    "id": "obj-57",
                    "maxclass": "meter~",
                    "numinlets": 1,
                    "numoutlets": 1,
                    "outlettype": [ "float" ],
                    "patching_rect": [ 678.0, 229.0, 80.0, 13.0 ]
                }
            },
            {
                "box": {
                    "id": "obj-56",
                    "maxclass": "newobj",
                    "numinlets": 1,
                    "numoutlets": 2,
                    "outlettype": [ "signal", "signal" ],
                    "patching_rect": [ 596.0, 169.0, 35.0, 22.0 ],
                    "text": "adc~"
                }
            },
            {
                "box": {
                    "format": 6,
                    "id": "obj-51",
                    "maxclass": "flonum",
                    "numinlets": 1,
                    "numoutlets": 2,
                    "outlettype": [ "", "bang" ],
                    "parameter_enable": 0,
                    "patching_rect": [ 688.0, 362.0, 50.0, 22.0 ]
                }
            },
            {
                "box": {
                    "format": 6,
                    "id": "obj-48",
                    "maxclass": "flonum",
                    "numinlets": 1,
                    "numoutlets": 2,
                    "outlettype": [ "", "bang" ],
                    "parameter_enable": 0,
                    "patching_rect": [ 667.0, 414.0, 50.0, 22.0 ]
                }
            },
            {
                "box": {
                    "id": "obj-46",
                    "maxclass": "newobj",
                    "numinlets": 2,
                    "numoutlets": 1,
                    "outlettype": [ "signal" ],
                    "patching_rect": [ 592.0, 456.0, 34.0, 22.0 ],
                    "text": "*~ 0."
                }
            },
            {
                "box": {
                    "id": "obj-45",
                    "maxclass": "newobj",
                    "numinlets": 1,
                    "numoutlets": 1,
                    "outlettype": [ "signal" ],
                    "patching_rect": [ 592.0, 403.0, 72.0, 22.0 ],
                    "text": "tapout~ 100"
                }
            },
            {
                "box": {
                    "id": "obj-44",
                    "maxclass": "newobj",
                    "numinlets": 1,
                    "numoutlets": 1,
                    "outlettype": [ "tapconnect" ],
                    "patching_rect": [ 592.0, 359.0, 65.0, 22.0 ],
                    "text": "tapin~ 100"
                }
            },
            {
                "box": {
                    "id": "obj-43",
                    "maxclass": "multislider",
                    "numinlets": 1,
                    "numoutlets": 2,
                    "outlettype": [ "", "" ],
                    "parameter_enable": 0,
                    "patching_rect": [ 31.5, 520.0, 454.0, 162.0 ],
                    "setminmax": [ 0.0, 1.0 ],
                    "size": 32
                }
            },
            {
                "box": {
                    "id": "obj-25",
                    "linecount": 2,
                    "maxclass": "message",
                    "numinlets": 2,
                    "numoutlets": 1,
                    "outlettype": [ "" ],
                    "patching_rect": [ -264.5, 428.0, 315.0, 35.0 ],
                    "text": "0.1 0.1 0.04 0.04 0.02 0.02 0.01 0.01 0.01 0. 0. 0. 0. 0. 0. 0. 0. 0. 0. 0. 0. 0. 0. 0. 0. 0. 0. 0. 0. 0. 0. 0."
                }
            },
            {
                "box": {
                    "id": "obj-20",
                    "maxclass": "message",
                    "numinlets": 2,
                    "numoutlets": 1,
                    "outlettype": [ "" ],
                    "patching_rect": [ 57.0, 489.0, 36.0, 22.0 ],
                    "text": "0 0"
                }
            },
            {
                "box": {
                    "id": "obj-19",
                    "maxclass": "newobj",
                    "numinlets": 2,
                    "numoutlets": 2,
                    "outlettype": [ "", "" ],
                    "patching_rect": [ 31.5, 365.0, 61.0, 22.0 ],
                    "text": "zl slice 32"
                }
            },
            {
                "box": {
                    "id": "obj-6",
                    "maxclass": "newobj",
                    "numinlets": 2,
                    "numoutlets": 2,
                    "outlettype": [ "", "" ],
                    "patching_rect": [ 31.5, 330.0, 61.0, 22.0 ],
                    "text": "route FFT"
                }
            },
            {
                "box": {
                    "format": 6,
                    "id": "obj-29",
                    "maxclass": "flonum",
                    "numinlets": 1,
                    "numoutlets": 2,
                    "outlettype": [ "", "bang" ],
                    "parameter_enable": 0,
                    "patching_rect": [ 204.5, 295.0, 50.0, 22.0 ]
                }
            },
            {
                "box": {
                    "id": "obj-22",
                    "maxclass": "newobj",
                    "numinlets": 2,
                    "numoutlets": 1,
                    "outlettype": [ "float" ],
                    "patching_rect": [ 204.5, 266.0, 49.0, 22.0 ],
                    "text": "!- 1501."
                }
            },
            {
                "box": {
                    "format": 6,
                    "id": "obj-21",
                    "maxclass": "flonum",
                    "numinlets": 1,
                    "numoutlets": 2,
                    "outlettype": [ "", "bang" ],
                    "parameter_enable": 0,
                    "patching_rect": [ 204.5, 239.0, 50.0, 22.0 ]
                }
            },
            {
                "box": {
                    "id": "obj-18",
                    "maxclass": "newobj",
                    "numinlets": 5,
                    "numoutlets": 1,
                    "outlettype": [ "" ],
                    "patching_rect": [ 204.5, 210.0, 125.0, 22.0 ],
                    "text": "zmap 0 1000 10 1500"
                }
            },
            {
                "box": {
                    "id": "obj-5",
                    "maxclass": "newobj",
                    "numinlets": 1,
                    "numoutlets": 0,
                    "patching_rect": [ 49.0, 297.0, 32.0, 22.0 ],
                    "text": "print"
                }
            },
            {
                "box": {
                    "fontname": "Trebuchet MS",
                    "fontsize": 12.0,
                    "id": "obj-61",
                    "maxclass": "newobj",
                    "numinlets": 1,
                    "numoutlets": 1,
                    "outlettype": [ "bang" ],
                    "patching_rect": [ 120.5, 3.0, 59.0, 22.0 ],
                    "text": "loadbang"
                }
            },
            {
                "box": {
                    "fontname": "Trebuchet MS",
                    "fontsize": 12.0,
                    "id": "obj-77",
                    "maxclass": "newobj",
                    "numinlets": 1,
                    "numoutlets": 1,
                    "outlettype": [ "clear" ],
                    "patcher": {
                        "fileversion": 1,
                        "appversion": {
                            "major": 9,
                            "minor": 1,
                            "revision": 1,
                            "architecture": "x64",
                            "modernui": 1
                        },
                        "classnamespace": "box",
                        "rect": [ 34.0, 79.0, 667.0, 547.0 ],
                        "boxes": [
                            {
                                "box": {
                                    "fontname": "Arial",
                                    "fontsize": 12.0,
                                    "id": "obj-10",
                                    "maxclass": "message",
                                    "numinlets": 2,
                                    "numoutlets": 1,
                                    "outlettype": [ "" ],
                                    "patching_rect": [ 148.0, 212.0, 52.0, 22.0 ],
                                    "text": "select..."
                                }
                            },
                            {
                                "box": {
                                    "fontname": "Arial",
                                    "fontsize": 12.0,
                                    "id": "obj-8",
                                    "maxclass": "newobj",
                                    "numinlets": 1,
                                    "numoutlets": 3,
                                    "outlettype": [ "print", "bang", "clear" ],
                                    "patching_rect": [ 51.0, 76.0, 80.0, 22.0 ],
                                    "text": "t print b clear"
                                }
                            },
                            {
                                "box": {
                                    "fontname": "Arial",
                                    "fontsize": 10.0,
                                    "id": "obj-1",
                                    "maxclass": "newobj",
                                    "numinlets": 2,
                                    "numoutlets": 2,
                                    "outlettype": [ "", "" ],
                                    "patching_rect": [ 90.0, 171.0, 56.0, 20.0 ],
                                    "text": "route port"
                                }
                            },
                            {
                                "box": {
                                    "fontname": "Arial",
                                    "fontsize": 10.0,
                                    "id": "obj-3",
                                    "maxclass": "newobj",
                                    "numinlets": 1,
                                    "numoutlets": 1,
                                    "outlettype": [ "" ],
                                    "patching_rect": [ 90.0, 358.0, 111.0, 20.0 ],
                                    "text": "prepend append"
                                }
                            },
                            {
                                "box": {
                                    "fontname": "Arial",
                                    "fontsize": 10.0,
                                    "id": "obj-4",
                                    "maxclass": "newobj",
                                    "numinlets": 1,
                                    "numoutlets": 2,
                                    "outlettype": [ "int", "" ],
                                    "patching_rect": [ 64.0, 115.0, 36.0, 20.0 ],
                                    "text": "serial"
                                }
                            },
                            {
                                "box": {
                                    "fontname": "Arial",
                                    "fontsize": 10.0,
                                    "id": "obj-5",
                                    "maxclass": "newobj",
                                    "numinlets": 1,
                                    "numoutlets": 1,
                                    "outlettype": [ "" ],
                                    "patching_rect": [ 31.0, 271.0, 25.0, 20.0 ],
                                    "text": "iter"
                                }
                            },
                            {
                                "box": {
                                    "comment": "",
                                    "id": "obj-6",
                                    "index": 1,
                                    "maxclass": "inlet",
                                    "numinlets": 0,
                                    "numoutlets": 1,
                                    "outlettype": [ "" ],
                                    "patching_rect": [ 64.0, 45.0, 15.0, 15.0 ]
                                }
                            },
                            {
                                "box": {
                                    "comment": "",
                                    "id": "obj-7",
                                    "index": 1,
                                    "maxclass": "outlet",
                                    "numinlets": 1,
                                    "numoutlets": 0,
                                    "patching_rect": [ 148.0, 432.0, 15.0, 15.0 ]
                                }
                            }
                        ],
                        "lines": [
                            {
                                "patchline": {
                                    "destination": [ "obj-5", 0 ],
                                    "source": [ "obj-1", 0 ]
                                }
                            },
                            {
                                "patchline": {
                                    "destination": [ "obj-3", 0 ],
                                    "midpoints": [ 106.0, 260.0 ],
                                    "source": [ "obj-10", 0 ]
                                }
                            },
                            {
                                "patchline": {
                                    "destination": [ "obj-7", 0 ],
                                    "source": [ "obj-3", 0 ]
                                }
                            },
                            {
                                "patchline": {
                                    "destination": [ "obj-1", 0 ],
                                    "source": [ "obj-4", 1 ]
                                }
                            },
                            {
                                "patchline": {
                                    "destination": [ "obj-3", 0 ],
                                    "source": [ "obj-5", 0 ]
                                }
                            },
                            {
                                "patchline": {
                                    "destination": [ "obj-8", 0 ],
                                    "source": [ "obj-6", 0 ]
                                }
                            },
                            {
                                "patchline": {
                                    "destination": [ "obj-10", 0 ],
                                    "midpoints": [ 229.0, 217.0 ],
                                    "source": [ "obj-8", 1 ]
                                }
                            },
                            {
                                "patchline": {
                                    "destination": [ "obj-4", 0 ],
                                    "source": [ "obj-8", 0 ]
                                }
                            },
                            {
                                "patchline": {
                                    "destination": [ "obj-7", 0 ],
                                    "midpoints": [ 364.0, 251.0 ],
                                    "source": [ "obj-8", 2 ]
                                }
                            }
                        ]
                    },
                    "patching_rect": [ 120.5, 62.0, 61.0, 22.0 ],
                    "text": "p devices"
                }
            },
            {
                "box": {
                    "fontname": "Trebuchet MS",
                    "fontsize": 12.0,
                    "id": "obj-64",
                    "maxclass": "message",
                    "numinlets": 2,
                    "numoutlets": 1,
                    "outlettype": [ "" ],
                    "patching_rect": [ 120.5, 32.0177, 48.0, 22.0 ],
                    "presentation": 1,
                    "presentation_rect": [ 84.5, 109.214874, 48.0, 22.0 ],
                    "text": "update"
                }
            },
            {
                "box": {
                    "fontname": "Verdana",
                    "fontsize": 9.0,
                    "id": "obj-16",
                    "maxclass": "newobj",
                    "numinlets": 1,
                    "numoutlets": 1,
                    "outlettype": [ "" ],
                    "patcher": {
                        "fileversion": 1,
                        "appversion": {
                            "major": 9,
                            "minor": 1,
                            "revision": 1,
                            "architecture": "x64",
                            "modernui": 1
                        },
                        "classnamespace": "box",
                        "rect": [ 519.0, 114.0, 213.0, 363.0 ],
                        "default_fontname": "Verdana",
                        "boxes": [
                            {
                                "box": {
                                    "id": "obj-1",
                                    "maxclass": "button",
                                    "numinlets": 1,
                                    "numoutlets": 1,
                                    "outlettype": [ "bang" ],
                                    "parameter_enable": 0,
                                    "patching_rect": [ 114.0, 142.0, 15.0, 15.0 ]
                                }
                            },
                            {
                                "box": {
                                    "fontname": "Verdana",
                                    "fontsize": 9.0,
                                    "id": "obj-2",
                                    "maxclass": "message",
                                    "numinlets": 2,
                                    "numoutlets": 1,
                                    "outlettype": [ "" ],
                                    "patching_rect": [ 114.0, 168.0, 33.0, 15.0 ],
                                    "text": "clear"
                                }
                            },
                            {
                                "box": {
                                    "fontname": "Verdana",
                                    "fontsize": 9.0,
                                    "id": "obj-3",
                                    "linecount": 2,
                                    "maxclass": "newobj",
                                    "numinlets": 1,
                                    "numoutlets": 1,
                                    "outlettype": [ "" ],
                                    "patching_rect": [ 24.0, 167.0, 78.0, 28.0 ],
                                    "text": "prepend append"
                                }
                            },
                            {
                                "box": {
                                    "fontname": "Verdana",
                                    "fontsize": 9.0,
                                    "id": "obj-4",
                                    "maxclass": "newobj",
                                    "numinlets": 2,
                                    "numoutlets": 2,
                                    "outlettype": [ "", "" ],
                                    "patching_rect": [ 24.0, 116.0, 47.0, 17.0 ],
                                    "text": "zl iter 1"
                                }
                            },
                            {
                                "box": {
                                    "fontname": "Verdana",
                                    "fontsize": 9.0,
                                    "id": "obj-5",
                                    "maxclass": "newobj",
                                    "numinlets": 2,
                                    "numoutlets": 2,
                                    "outlettype": [ "", "" ],
                                    "patching_rect": [ 24.0, 76.0, 56.0, 17.0 ],
                                    "text": "route port"
                                }
                            },
                            {
                                "box": {
                                    "comment": "",
                                    "id": "obj-6",
                                    "index": 1,
                                    "maxclass": "outlet",
                                    "numinlets": 1,
                                    "numoutlets": 0,
                                    "patching_rect": [ 24.0, 246.0, 16.0, 16.0 ]
                                }
                            },
                            {
                                "box": {
                                    "comment": "",
                                    "id": "obj-7",
                                    "index": 1,
                                    "maxclass": "inlet",
                                    "numinlets": 0,
                                    "numoutlets": 1,
                                    "outlettype": [ "" ],
                                    "patching_rect": [ 24.0, 32.0, 16.0, 16.0 ]
                                }
                            }
                        ],
                        "lines": [
                            {
                                "patchline": {
                                    "destination": [ "obj-2", 0 ],
                                    "source": [ "obj-1", 0 ]
                                }
                            },
                            {
                                "patchline": {
                                    "destination": [ "obj-6", 0 ],
                                    "source": [ "obj-2", 0 ]
                                }
                            },
                            {
                                "patchline": {
                                    "destination": [ "obj-6", 0 ],
                                    "source": [ "obj-3", 0 ]
                                }
                            },
                            {
                                "patchline": {
                                    "destination": [ "obj-3", 0 ],
                                    "source": [ "obj-4", 0 ]
                                }
                            },
                            {
                                "patchline": {
                                    "destination": [ "obj-1", 0 ],
                                    "order": 0,
                                    "source": [ "obj-5", 0 ]
                                }
                            },
                            {
                                "patchline": {
                                    "destination": [ "obj-4", 0 ],
                                    "order": 1,
                                    "source": [ "obj-5", 0 ]
                                }
                            },
                            {
                                "patchline": {
                                    "destination": [ "obj-5", 0 ],
                                    "source": [ "obj-7", 0 ]
                                }
                            }
                        ]
                    },
                    "patching_rect": [ 204.5, 172.0, 72.0, 19.0 ],
                    "saved_object_attributes": {
                        "fontname": "Verdana"
                    },
                    "text": "p createMenu"
                }
            },
            {
                "box": {
                    "bgcolor": [ 0.635294, 0.803922, 0.490196, 1.0 ],
                    "bgfillcolor_angle": 270.0,
                    "bgfillcolor_color": [ 0.635294, 0.803922, 0.490196, 1.0 ],
                    "bgfillcolor_color1": [ 0.376471, 0.384314, 0.4, 1.0 ],
                    "bgfillcolor_color2": [ 0.290196, 0.309804, 0.301961, 1.0 ],
                    "bgfillcolor_proportion": 0.39,
                    "bgfillcolor_type": "color",
                    "fontname": "Verdana",
                    "fontsize": 9.0,
                    "id": "obj-23",
                    "items": [ "select...", ",", "BLTH", ",", "HookeVerse", ",", "macMacBookPro", ",", "NS-83", ",", "F4", ",", "BigAirpod", ",", "Bluetooth-Incoming-Port", ",", "usbserial-1410" ],
                    "labelclick": 1,
                    "maxclass": "umenu",
                    "numinlets": 1,
                    "numoutlets": 3,
                    "outlettype": [ "int", "", "" ],
                    "parameter_enable": 0,
                    "patching_rect": [ 120.5, 94.0, 149.0, 19.0 ],
                    "textcolor": [ 0.0, 0.0, 0.0, 1.0 ]
                }
            },
            {
                "box": {
                    "fontname": "Verdana",
                    "fontsize": 9.0,
                    "id": "obj-24",
                    "maxclass": "newobj",
                    "numinlets": 1,
                    "numoutlets": 1,
                    "outlettype": [ "" ],
                    "patching_rect": [ 185.5, 119.0, 68.0, 19.0 ],
                    "text": "prepend port"
                }
            },
            {
                "box": {
                    "id": "obj-26",
                    "maxclass": "toggle",
                    "numinlets": 1,
                    "numoutlets": 1,
                    "outlettype": [ "int" ],
                    "parameter_enable": 0,
                    "patching_rect": [ 31.5, 82.0, 19.0, 19.0 ]
                }
            },
            {
                "box": {
                    "fontname": "Verdana",
                    "fontsize": 9.0,
                    "id": "obj-27",
                    "maxclass": "newobj",
                    "numinlets": 2,
                    "numoutlets": 1,
                    "outlettype": [ "bang" ],
                    "patching_rect": [ 31.5, 107.0, 50.0, 19.0 ],
                    "text": "metro 33"
                }
            },
            {
                "box": {
                    "fontname": "Verdana",
                    "fontsize": 9.0,
                    "id": "obj-11",
                    "maxclass": "newobj",
                    "numinlets": 1,
                    "numoutlets": 1,
                    "outlettype": [ "" ],
                    "patching_rect": [ 31.5, 259.0, 64.0, 19.0 ],
                    "text": "fromsymbol"
                }
            },
            {
                "box": {
                    "fontname": "Verdana",
                    "fontsize": 9.0,
                    "id": "obj-12",
                    "maxclass": "newobj",
                    "numinlets": 3,
                    "numoutlets": 1,
                    "outlettype": [ "int" ],
                    "patching_rect": [ 31.5, 235.0, 40.0, 19.0 ],
                    "text": "itoa"
                }
            },
            {
                "box": {
                    "fontname": "Verdana",
                    "fontsize": 9.0,
                    "id": "obj-13",
                    "maxclass": "newobj",
                    "numinlets": 2,
                    "numoutlets": 2,
                    "outlettype": [ "", "" ],
                    "patching_rect": [ 31.5, 210.0, 65.0, 19.0 ],
                    "text": "zl group 256"
                }
            },
            {
                "box": {
                    "fontname": "Verdana",
                    "fontsize": 9.0,
                    "id": "obj-14",
                    "maxclass": "newobj",
                    "numinlets": 3,
                    "numoutlets": 3,
                    "outlettype": [ "bang", "bang", "" ],
                    "patching_rect": [ 31.5, 172.0, 52.0, 19.0 ],
                    "text": "sel 10 13"
                }
            },
            {
                "box": {
                    "fontname": "Verdana",
                    "fontsize": 9.0,
                    "id": "obj-28",
                    "maxclass": "newobj",
                    "numinlets": 1,
                    "numoutlets": 2,
                    "outlettype": [ "int", "" ],
                    "patching_rect": [ 31.5, 146.0, 103.0, 19.0 ],
                    "text": "serial f 115200 8 1 0"
                }
            }
        ],
        "lines": [
            {
                "patchline": {
                    "destination": [ "obj-5", 0 ],
                    "order": 0,
                    "source": [ "obj-11", 0 ]
                }
            },
            {
                "patchline": {
                    "destination": [ "obj-6", 0 ],
                    "order": 1,
                    "source": [ "obj-11", 0 ]
                }
            },
            {
                "patchline": {
                    "destination": [ "obj-11", 0 ],
                    "source": [ "obj-12", 0 ]
                }
            },
            {
                "patchline": {
                    "destination": [ "obj-12", 0 ],
                    "source": [ "obj-13", 0 ]
                }
            },
            {
                "patchline": {
                    "destination": [ "obj-13", 0 ],
                    "midpoints": [ 74.0, 203.0, 41.0, 203.0 ],
                    "source": [ "obj-14", 2 ]
                }
            },
            {
                "patchline": {
                    "destination": [ "obj-13", 0 ],
                    "source": [ "obj-14", 0 ]
                }
            },
            {
                "patchline": {
                    "destination": [ "obj-23", 0 ],
                    "midpoints": [ 214.0, 201.0, 288.0, 201.0, 288.0, 87.0, 130.0, 87.0 ],
                    "source": [ "obj-16", 0 ]
                }
            },
            {
                "patchline": {
                    "destination": [ "obj-21", 0 ],
                    "source": [ "obj-18", 0 ]
                }
            },
            {
                "patchline": {
                    "destination": [ "obj-20", 1 ],
                    "source": [ "obj-19", 1 ]
                }
            },
            {
                "patchline": {
                    "destination": [ "obj-25", 1 ],
                    "order": 0,
                    "source": [ "obj-19", 0 ]
                }
            },
            {
                "patchline": {
                    "destination": [ "obj-43", 0 ],
                    "order": 1,
                    "source": [ "obj-19", 0 ]
                }
            },
            {
                "patchline": {
                    "destination": [ "obj-22", 0 ],
                    "source": [ "obj-21", 0 ]
                }
            },
            {
                "patchline": {
                    "destination": [ "obj-29", 0 ],
                    "source": [ "obj-22", 0 ]
                }
            },
            {
                "patchline": {
                    "destination": [ "obj-24", 0 ],
                    "source": [ "obj-23", 1 ]
                }
            },
            {
                "patchline": {
                    "destination": [ "obj-28", 0 ],
                    "midpoints": [ 195.0, 140.0, 41.0, 140.0 ],
                    "source": [ "obj-24", 0 ]
                }
            },
            {
                "patchline": {
                    "destination": [ "obj-27", 0 ],
                    "source": [ "obj-26", 0 ]
                }
            },
            {
                "patchline": {
                    "destination": [ "obj-28", 0 ],
                    "source": [ "obj-27", 0 ]
                }
            },
            {
                "patchline": {
                    "destination": [ "obj-14", 0 ],
                    "source": [ "obj-28", 0 ]
                }
            },
            {
                "patchline": {
                    "destination": [ "obj-16", 0 ],
                    "source": [ "obj-28", 1 ]
                }
            },
            {
                "patchline": {
                    "destination": [ "obj-45", 0 ],
                    "source": [ "obj-44", 0 ]
                }
            },
            {
                "patchline": {
                    "destination": [ "obj-46", 0 ],
                    "source": [ "obj-45", 0 ]
                }
            },
            {
                "patchline": {
                    "destination": [ "obj-44", 0 ],
                    "midpoints": [ 601.5, 502.74761962890625, 547.067138671875, 502.74761962890625, 547.067138671875, 327.8936462402344, 601.5, 327.8936462402344 ],
                    "source": [ "obj-46", 0 ]
                }
            },
            {
                "patchline": {
                    "destination": [ "obj-46", 1 ],
                    "source": [ "obj-48", 0 ]
                }
            },
            {
                "patchline": {
                    "destination": [ "obj-44", 0 ],
                    "order": 1,
                    "source": [ "obj-51", 0 ]
                }
            },
            {
                "patchline": {
                    "destination": [ "obj-45", 0 ],
                    "order": 0,
                    "source": [ "obj-51", 0 ]
                }
            },
            {
                "patchline": {
                    "destination": [ "obj-44", 0 ],
                    "order": 2,
                    "source": [ "obj-56", 0 ]
                }
            },
            {
                "patchline": {
                    "destination": [ "obj-57", 0 ],
                    "order": 1,
                    "source": [ "obj-56", 0 ]
                }
            },
            {
                "patchline": {
                    "destination": [ "obj-58", 0 ],
                    "order": 0,
                    "source": [ "obj-56", 0 ]
                }
            },
            {
                "patchline": {
                    "destination": [ "obj-19", 0 ],
                    "source": [ "obj-6", 0 ]
                }
            },
            {
                "patchline": {
                    "destination": [ "obj-64", 0 ],
                    "source": [ "obj-61", 0 ]
                }
            },
            {
                "patchline": {
                    "destination": [ "obj-77", 0 ],
                    "source": [ "obj-64", 0 ]
                }
            },
            {
                "patchline": {
                    "destination": [ "obj-23", 0 ],
                    "source": [ "obj-77", 0 ]
                }
            }
        ],
        "autosave": 0
    }
}