{
    "patcher": {
        "fileversion": 1,
        "appversion": {
            "major": 9,
            "minor": 1,
            "revision": 1,
            "architecture": "x64",
            "modernui": 1
        },
        "classnamespace": "box",
        "rect": [ 59.0, 111.0, 941.0, 648.0 ],
        "boxes": [
            {
                "box": {
                    "id": "obj-36",
                    "linecount": 2,
                    "maxclass": "comment",
                    "numinlets": 1,
                    "numoutlets": 0,
                    "patching_rect": [ 476.0, 87.0, 311.0, 35.0 ],
                    "text": "這個patch是給 DFROBOT 的 heartbeat sensor \nhttps://github.com/DFRobot/DFRobot_Heartrate"
                }
            },
            {
                "box": {
                    "id": "obj-34",
                    "maxclass": "message",
                    "numinlets": 2,
                    "numoutlets": 1,
                    "outlettype": [ "" ],
                    "patching_rect": [ 282.0, 444.0, 50.0, 22.0 ],
                    "text": "1"
                }
            },
            {
                "box": {
                    "id": "obj-32",
                    "maxclass": "message",
                    "numinlets": 2,
                    "numoutlets": 1,
                    "outlettype": [ "" ],
                    "patching_rect": [ 216.0, 567.0, 86.0, 22.0 ],
                    "text": "0"
                }
            },
            {
                "box": {
                    "id": "obj-31",
                    "maxclass": "number",
                    "numinlets": 1,
                    "numoutlets": 2,
                    "outlettype": [ "", "bang" ],
                    "parameter_enable": 0,
                    "patching_rect": [ 78.0, 445.0, 50.0, 22.0 ]
                }
            },
            {
                "box": {
                    "id": "obj-30",
                    "maxclass": "multislider",
                    "numinlets": 1,
                    "numoutlets": 2,
                    "outlettype": [ "", "" ],
                    "parameter_enable": 0,
                    "patching_rect": [ 104.0, 628.0, 282.0, 176.0 ],
                    "setminmax": [ 200.0, 3000.0 ],
                    "setstyle": 5
                }
            },
            {
                "box": {
                    "id": "obj-10",
                    "maxclass": "multislider",
                    "numinlets": 1,
                    "numoutlets": 2,
                    "outlettype": [ "", "" ],
                    "parameter_enable": 0,
                    "patching_rect": [ 404.0, 603.0, 282.0, 176.0 ],
                    "setminmax": [ 200.0, 3000.0 ],
                    "setstyle": 5
                }
            },
            {
                "box": {
                    "id": "obj-29",
                    "maxclass": "message",
                    "numinlets": 2,
                    "numoutlets": 1,
                    "outlettype": [ "" ],
                    "patching_rect": [ 96.5, 493.0, 50.0, 22.0 ],
                    "text": "42"
                }
            },
            {
                "box": {
                    "id": "obj-22",
                    "maxclass": "message",
                    "numinlets": 2,
                    "numoutlets": 1,
                    "outlettype": [ "" ],
                    "patching_rect": [ 141.0, 522.0, 50.0, 22.0 ],
                    "text": "68"
                }
            },
            {
                "box": {
                    "id": "obj-20",
                    "maxclass": "number",
                    "numinlets": 1,
                    "numoutlets": 2,
                    "outlettype": [ "", "bang" ],
                    "parameter_enable": 0,
                    "patching_rect": [ 31.5, 483.0, 50.0, 22.0 ]
                }
            },
            {
                "box": {
                    "id": "obj-18",
                    "maxclass": "newobj",
                    "numinlets": 7,
                    "numoutlets": 7,
                    "outlettype": [ "", "", "", "", "", "", "" ],
                    "patching_rect": [ 18.5, 361.0, 273.0, 22.0 ],
                    "text": "route /raw/1 /raw/2 /bpm/1 /bpm/2 /state/1 /state/2"
                }
            },
            {
                "box": {
                    "id": "obj-17",
                    "maxclass": "message",
                    "numinlets": 2,
                    "numoutlets": 1,
                    "outlettype": [ "" ],
                    "patching_rect": [ 194.5, 283.0, 50.0, 22.0 ],
                    "text": "10"
                }
            },
            {
                "box": {
                    "id": "obj-15",
                    "maxclass": "message",
                    "numinlets": 2,
                    "numoutlets": 1,
                    "outlettype": [ "" ],
                    "patching_rect": [ 233.0, 44.0, 37.0, 22.0 ],
                    "text": "close"
                }
            },
            {
                "box": {
                    "id": "obj-8",
                    "maxclass": "message",
                    "numinlets": 2,
                    "numoutlets": 1,
                    "outlettype": [ "" ],
                    "patching_rect": [ 40.5, 326.0, 106.0, 22.0 ],
                    "text": "/raw/2 976"
                }
            },
            {
                "box": {
                    "fontname": "Trebuchet MS",
                    "fontsize": 12.0,
                    "id": "obj-61",
                    "maxclass": "newobj",
                    "numinlets": 1,
                    "numoutlets": 1,
                    "outlettype": [ "bang" ],
                    "patching_rect": [ 120.5, 3.0, 59.0, 22.0 ],
                    "text": "loadbang"
                }
            },
            {
                "box": {
                    "fontname": "Trebuchet MS",
                    "fontsize": 12.0,
                    "id": "obj-77",
                    "maxclass": "newobj",
                    "numinlets": 1,
                    "numoutlets": 1,
                    "outlettype": [ "clear" ],
                    "patcher": {
                        "fileversion": 1,
                        "appversion": {
                            "major": 9,
                            "minor": 1,
                            "revision": 1,
                            "architecture": "x64",
                            "modernui": 1
                        },
                        "classnamespace": "box",
                        "rect": [ 134.0, 165.0, 667.0, 547.0 ],
                        "boxes": [
                            {
                                "box": {
                                    "fontname": "Arial",
                                    "fontsize": 12.0,
                                    "id": "obj-10",
                                    "maxclass": "message",
                                    "numinlets": 2,
                                    "numoutlets": 1,
                                    "outlettype": [ "" ],
                                    "patching_rect": [ 148.0, 212.0, 52.0, 22.0 ],
                                    "text": "select..."
                                }
                            },
                            {
                                "box": {
                                    "fontname": "Arial",
                                    "fontsize": 12.0,
                                    "id": "obj-8",
                                    "maxclass": "newobj",
                                    "numinlets": 1,
                                    "numoutlets": 3,
                                    "outlettype": [ "print", "bang", "clear" ],
                                    "patching_rect": [ 51.0, 76.0, 80.0, 22.0 ],
                                    "text": "t print b clear"
                                }
                            },
                            {
                                "box": {
                                    "fontname": "Arial",
                                    "fontsize": 10.0,
                                    "id": "obj-1",
                                    "maxclass": "newobj",
                                    "numinlets": 2,
                                    "numoutlets": 2,
                                    "outlettype": [ "", "" ],
                                    "patching_rect": [ 90.0, 171.0, 56.0, 20.0 ],
                                    "text": "route port"
                                }
                            },
                            {
                                "box": {
                                    "fontname": "Arial",
                                    "fontsize": 10.0,
                                    "id": "obj-3",
                                    "maxclass": "newobj",
                                    "numinlets": 1,
                                    "numoutlets": 1,
                                    "outlettype": [ "" ],
                                    "patching_rect": [ 90.0, 358.0, 111.0, 20.0 ],
                                    "text": "prepend append"
                                }
                            },
                            {
                                "box": {
                                    "fontname": "Arial",
                                    "fontsize": 10.0,
                                    "id": "obj-4",
                                    "maxclass": "newobj",
                                    "numinlets": 1,
                                    "numoutlets": 2,
                                    "outlettype": [ "int", "" ],
                                    "patching_rect": [ 64.0, 115.0, 36.0, 20.0 ],
                                    "text": "serial"
                                }
                            },
                            {
                                "box": {
                                    "fontname": "Arial",
                                    "fontsize": 10.0,
                                    "id": "obj-5",
                                    "maxclass": "newobj",
                                    "numinlets": 1,
                                    "numoutlets": 1,
                                    "outlettype": [ "" ],
                                    "patching_rect": [ 31.0, 271.0, 25.0, 20.0 ],
                                    "text": "iter"
                                }
                            },
                            {
                                "box": {
                                    "comment": "",
                                    "id": "obj-6",
                                    "index": 1,
                                    "maxclass": "inlet",
                                    "numinlets": 0,
                                    "numoutlets": 1,
                                    "outlettype": [ "" ],
                                    "patching_rect": [ 64.0, 45.0, 15.0, 15.0 ]
                                }
                            },
                            {
                                "box": {
                                    "comment": "",
                                    "id": "obj-7",
                                    "index": 1,
                                    "maxclass": "outlet",
                                    "numinlets": 1,
                                    "numoutlets": 0,
                                    "patching_rect": [ 148.0, 432.0, 15.0, 15.0 ]
                                }
                            }
                        ],
                        "lines": [
                            {
                                "patchline": {
                                    "destination": [ "obj-5", 0 ],
                                    "source": [ "obj-1", 0 ]
                                }
                            },
                            {
                                "patchline": {
                                    "destination": [ "obj-3", 0 ],
                                    "midpoints": [ 106.0, 260.0 ],
                                    "source": [ "obj-10", 0 ]
                                }
                            },
                            {
                                "patchline": {
                                    "destination": [ "obj-7", 0 ],
                                    "source": [ "obj-3", 0 ]
                                }
                            },
                            {
                                "patchline": {
                                    "destination": [ "obj-1", 0 ],
                                    "source": [ "obj-4", 1 ]
                                }
                            },
                            {
                                "patchline": {
                                    "destination": [ "obj-3", 0 ],
                                    "source": [ "obj-5", 0 ]
                                }
                            },
                            {
                                "patchline": {
                                    "destination": [ "obj-8", 0 ],
                                    "source": [ "obj-6", 0 ]
                                }
                            },
                            {
                                "patchline": {
                                    "destination": [ "obj-10", 0 ],
                                    "midpoints": [ 229.0, 217.0 ],
                                    "source": [ "obj-8", 1 ]
                                }
                            },
                            {
                                "patchline": {
                                    "destination": [ "obj-4", 0 ],
                                    "source": [ "obj-8", 0 ]
                                }
                            },
                            {
                                "patchline": {
                                    "destination": [ "obj-7", 0 ],
                                    "midpoints": [ 364.0, 251.0 ],
                                    "source": [ "obj-8", 2 ]
                                }
                            }
                        ]
                    },
                    "patching_rect": [ 120.5, 62.0, 61.0, 22.0 ],
                    "text": "p devices"
                }
            },
            {
                "box": {
                    "fontname": "Trebuchet MS",
                    "fontsize": 12.0,
                    "id": "obj-64",
                    "maxclass": "message",
                    "numinlets": 2,
                    "numoutlets": 1,
                    "outlettype": [ "" ],
                    "patching_rect": [ 120.5, 32.0177, 48.0, 22.0 ],
                    "presentation": 1,
                    "presentation_rect": [ 84.5, 109.214874, 48.0, 22.0 ],
                    "text": "update"
                }
            },
            {
                "box": {
                    "fontname": "Verdana",
                    "fontsize": 9.0,
                    "id": "obj-16",
                    "maxclass": "newobj",
                    "numinlets": 1,
                    "numoutlets": 1,
                    "outlettype": [ "" ],
                    "patcher": {
                        "fileversion": 1,
                        "appversion": {
                            "major": 9,
                            "minor": 1,
                            "revision": 1,
                            "architecture": "x64",
                            "modernui": 1
                        },
                        "classnamespace": "box",
                        "rect": [ 519.0, 114.0, 213.0, 363.0 ],
                        "default_fontname": "Verdana",
                        "boxes": [
                            {
                                "box": {
                                    "id": "obj-1",
                                    "maxclass": "button",
                                    "numinlets": 1,
                                    "numoutlets": 1,
                                    "outlettype": [ "bang" ],
                                    "parameter_enable": 0,
                                    "patching_rect": [ 114.0, 142.0, 15.0, 15.0 ]
                                }
                            },
                            {
                                "box": {
                                    "fontname": "Verdana",
                                    "fontsize": 9.0,
                                    "id": "obj-2",
                                    "maxclass": "message",
                                    "numinlets": 2,
                                    "numoutlets": 1,
                                    "outlettype": [ "" ],
                                    "patching_rect": [ 114.0, 168.0, 33.0, 15.0 ],
                                    "text": "clear"
                                }
                            },
                            {
                                "box": {
                                    "fontname": "Verdana",
                                    "fontsize": 9.0,
                                    "id": "obj-3",
                                    "linecount": 2,
                                    "maxclass": "newobj",
                                    "numinlets": 1,
                                    "numoutlets": 1,
                                    "outlettype": [ "" ],
                                    "patching_rect": [ 24.0, 167.0, 78.0, 28.0 ],
                                    "text": "prepend append"
                                }
                            },
                            {
                                "box": {
                                    "fontname": "Verdana",
                                    "fontsize": 9.0,
                                    "id": "obj-4",
                                    "maxclass": "newobj",
                                    "numinlets": 2,
                                    "numoutlets": 2,
                                    "outlettype": [ "", "" ],
                                    "patching_rect": [ 24.0, 116.0, 47.0, 17.0 ],
                                    "text": "zl iter 1"
                                }
                            },
                            {
                                "box": {
                                    "fontname": "Verdana",
                                    "fontsize": 9.0,
                                    "id": "obj-5",
                                    "maxclass": "newobj",
                                    "numinlets": 2,
                                    "numoutlets": 2,
                                    "outlettype": [ "", "" ],
                                    "patching_rect": [ 24.0, 76.0, 56.0, 17.0 ],
                                    "text": "route port"
                                }
                            },
                            {
                                "box": {
                                    "comment": "",
                                    "id": "obj-6",
                                    "index": 1,
                                    "maxclass": "outlet",
                                    "numinlets": 1,
                                    "numoutlets": 0,
                                    "patching_rect": [ 24.0, 246.0, 16.0, 16.0 ]
                                }
                            },
                            {
                                "box": {
                                    "comment": "",
                                    "id": "obj-7",
                                    "index": 1,
                                    "maxclass": "inlet",
                                    "numinlets": 0,
                                    "numoutlets": 1,
                                    "outlettype": [ "" ],
                                    "patching_rect": [ 24.0, 32.0, 16.0, 16.0 ]
                                }
                            }
                        ],
                        "lines": [
                            {
                                "patchline": {
                                    "destination": [ "obj-2", 0 ],
                                    "source": [ "obj-1", 0 ]
                                }
                            },
                            {
                                "patchline": {
                                    "destination": [ "obj-6", 0 ],
                                    "source": [ "obj-2", 0 ]
                                }
                            },
                            {
                                "patchline": {
                                    "destination": [ "obj-6", 0 ],
                                    "source": [ "obj-3", 0 ]
                                }
                            },
                            {
                                "patchline": {
                                    "destination": [ "obj-3", 0 ],
                                    "source": [ "obj-4", 0 ]
                                }
                            },
                            {
                                "patchline": {
                                    "destination": [ "obj-1", 0 ],
                                    "order": 0,
                                    "source": [ "obj-5", 0 ]
                                }
                            },
                            {
                                "patchline": {
                                    "destination": [ "obj-4", 0 ],
                                    "order": 1,
                                    "source": [ "obj-5", 0 ]
                                }
                            },
                            {
                                "patchline": {
                                    "destination": [ "obj-5", 0 ],
                                    "source": [ "obj-7", 0 ]
                                }
                            }
                        ]
                    },
                    "patching_rect": [ 204.5, 172.0, 72.0, 19.0 ],
                    "saved_object_attributes": {
                        "fontname": "Verdana"
                    },
                    "text": "p createMenu"
                }
            },
            {
                "box": {
                    "bgcolor": [ 0.635294, 0.803922, 0.490196, 1.0 ],
                    "bgfillcolor_angle": 270.0,
                    "bgfillcolor_color": [ 0.635294, 0.803922, 0.490196, 1.0 ],
                    "bgfillcolor_color1": [ 0.376471, 0.384314, 0.4, 1.0 ],
                    "bgfillcolor_color2": [ 0.290196, 0.309804, 0.301961, 1.0 ],
                    "bgfillcolor_proportion": 0.39,
                    "bgfillcolor_type": "color",
                    "fontname": "Verdana",
                    "fontsize": 9.0,
                    "id": "obj-23",
                    "items": [ "select...", ",", "BLTH", ",", "HookeVerse", ",", "Bluetooth-Incoming-Port", ",", "macMacBookPro", ",", "NS-83", ",", "F4", ",", "BigAirpod", ",", "usbserial-14230" ],
                    "labelclick": 1,
                    "maxclass": "umenu",
                    "numinlets": 1,
                    "numoutlets": 3,
                    "outlettype": [ "int", "", "" ],
                    "parameter_enable": 0,
                    "patching_rect": [ 120.5, 94.0, 149.0, 19.0 ],
                    "textcolor": [ 0.0, 0.0, 0.0, 1.0 ]
                }
            },
            {
                "box": {
                    "fontname": "Verdana",
                    "fontsize": 9.0,
                    "id": "obj-24",
                    "maxclass": "newobj",
                    "numinlets": 1,
                    "numoutlets": 1,
                    "outlettype": [ "" ],
                    "patching_rect": [ 185.5, 119.0, 68.0, 19.0 ],
                    "text": "prepend port"
                }
            },
            {
                "box": {
                    "id": "obj-26",
                    "maxclass": "toggle",
                    "numinlets": 1,
                    "numoutlets": 1,
                    "outlettype": [ "int" ],
                    "parameter_enable": 0,
                    "patching_rect": [ 31.5, 82.0, 19.0, 19.0 ]
                }
            },
            {
                "box": {
                    "fontname": "Verdana",
                    "fontsize": 9.0,
                    "id": "obj-27",
                    "maxclass": "newobj",
                    "numinlets": 2,
                    "numoutlets": 1,
                    "outlettype": [ "bang" ],
                    "patching_rect": [ 31.5, 107.0, 50.0, 19.0 ],
                    "text": "metro 33"
                }
            },
            {
                "box": {
                    "fontname": "Verdana",
                    "fontsize": 9.0,
                    "id": "obj-11",
                    "maxclass": "newobj",
                    "numinlets": 1,
                    "numoutlets": 1,
                    "outlettype": [ "" ],
                    "patching_rect": [ 31.5, 277.0, 64.0, 19.0 ],
                    "text": "fromsymbol"
                }
            },
            {
                "box": {
                    "fontname": "Verdana",
                    "fontsize": 9.0,
                    "id": "obj-12",
                    "maxclass": "newobj",
                    "numinlets": 3,
                    "numoutlets": 1,
                    "outlettype": [ "int" ],
                    "patching_rect": [ 31.5, 242.0, 40.0, 19.0 ],
                    "text": "itoa"
                }
            },
            {
                "box": {
                    "fontname": "Verdana",
                    "fontsize": 9.0,
                    "id": "obj-13",
                    "maxclass": "newobj",
                    "numinlets": 2,
                    "numoutlets": 2,
                    "outlettype": [ "", "" ],
                    "patching_rect": [ 31.5, 210.0, 71.0, 19.0 ],
                    "text": "zl group 1000"
                }
            },
            {
                "box": {
                    "fontname": "Verdana",
                    "fontsize": 9.0,
                    "id": "obj-14",
                    "maxclass": "newobj",
                    "numinlets": 2,
                    "numoutlets": 2,
                    "outlettype": [ "bang", "" ],
                    "patching_rect": [ 31.5, 181.0, 36.0, 19.0 ],
                    "text": "sel 10"
                }
            },
            {
                "box": {
                    "fontname": "Verdana",
                    "fontsize": 9.0,
                    "id": "obj-28",
                    "maxclass": "newobj",
                    "numinlets": 1,
                    "numoutlets": 2,
                    "outlettype": [ "int", "" ],
                    "patching_rect": [ 31.5, 146.0, 103.0, 19.0 ],
                    "text": "serial f 115200 8 1 0"
                }
            }
        ],
        "lines": [
            {
                "patchline": {
                    "destination": [ "obj-18", 0 ],
                    "order": 1,
                    "source": [ "obj-11", 0 ]
                }
            },
            {
                "patchline": {
                    "destination": [ "obj-8", 1 ],
                    "order": 0,
                    "source": [ "obj-11", 0 ]
                }
            },
            {
                "patchline": {
                    "destination": [ "obj-11", 0 ],
                    "source": [ "obj-12", 0 ]
                }
            },
            {
                "patchline": {
                    "destination": [ "obj-12", 0 ],
                    "source": [ "obj-13", 0 ]
                }
            },
            {
                "patchline": {
                    "destination": [ "obj-13", 0 ],
                    "source": [ "obj-14", 1 ]
                }
            },
            {
                "patchline": {
                    "destination": [ "obj-13", 0 ],
                    "source": [ "obj-14", 0 ]
                }
            },
            {
                "patchline": {
                    "destination": [ "obj-24", 0 ],
                    "source": [ "obj-15", 0 ]
                }
            },
            {
                "patchline": {
                    "destination": [ "obj-23", 0 ],
                    "midpoints": [ 214.0, 201.0, 288.0, 201.0, 288.0, 87.0, 130.0, 87.0 ],
                    "source": [ "obj-16", 0 ]
                }
            },
            {
                "patchline": {
                    "destination": [ "obj-10", 0 ],
                    "order": 0,
                    "source": [ "obj-18", 1 ]
                }
            },
            {
                "patchline": {
                    "destination": [ "obj-20", 0 ],
                    "order": 1,
                    "source": [ "obj-18", 0 ]
                }
            },
            {
                "patchline": {
                    "destination": [ "obj-22", 1 ],
                    "source": [ "obj-18", 3 ]
                }
            },
            {
                "patchline": {
                    "destination": [ "obj-29", 1 ],
                    "source": [ "obj-18", 2 ]
                }
            },
            {
                "patchline": {
                    "destination": [ "obj-30", 0 ],
                    "order": 0,
                    "source": [ "obj-18", 0 ]
                }
            },
            {
                "patchline": {
                    "destination": [ "obj-31", 0 ],
                    "order": 1,
                    "source": [ "obj-18", 1 ]
                }
            },
            {
                "patchline": {
                    "destination": [ "obj-32", 1 ],
                    "source": [ "obj-18", 4 ]
                }
            },
            {
                "patchline": {
                    "destination": [ "obj-34", 1 ],
                    "source": [ "obj-18", 5 ]
                }
            },
            {
                "patchline": {
                    "destination": [ "obj-24", 0 ],
                    "source": [ "obj-23", 1 ]
                }
            },
            {
                "patchline": {
                    "destination": [ "obj-28", 0 ],
                    "midpoints": [ 195.0, 140.0, 41.0, 140.0 ],
                    "source": [ "obj-24", 0 ]
                }
            },
            {
                "patchline": {
                    "destination": [ "obj-27", 0 ],
                    "source": [ "obj-26", 0 ]
                }
            },
            {
                "patchline": {
                    "destination": [ "obj-28", 0 ],
                    "source": [ "obj-27", 0 ]
                }
            },
            {
                "patchline": {
                    "destination": [ "obj-14", 0 ],
                    "order": 1,
                    "source": [ "obj-28", 0 ]
                }
            },
            {
                "patchline": {
                    "destination": [ "obj-16", 0 ],
                    "source": [ "obj-28", 1 ]
                }
            },
            {
                "patchline": {
                    "destination": [ "obj-17", 1 ],
                    "order": 0,
                    "source": [ "obj-28", 0 ]
                }
            },
            {
                "patchline": {
                    "destination": [ "obj-64", 0 ],
                    "source": [ "obj-61", 0 ]
                }
            },
            {
                "patchline": {
                    "destination": [ "obj-77", 0 ],
                    "source": [ "obj-64", 0 ]
                }
            },
            {
                "patchline": {
                    "destination": [ "obj-23", 0 ],
                    "source": [ "obj-77", 0 ]
                }
            }
        ],
        "autosave": 0
    }
}