{
    "patcher": {
        "fileversion": 1,
        "appversion": {
            "major": 9,
            "minor": 1,
            "revision": 1,
            "architecture": "x64",
            "modernui": 1
        },
        "classnamespace": "box",
        "rect": [ 34.0, 92.0, 1276.0, 714.0 ],
        "boxes": [
            {
                "box": {
                    "id": "obj-168",
                    "maxclass": "newobj",
                    "numinlets": 2,
                    "numoutlets": 1,
                    "outlettype": [ "signal" ],
                    "patching_rect": [ 758.0, 1071.0, 53.0, 22.0 ],
                    "text": "cycle~ 1"
                }
            },
            {
                "box": {
                    "id": "obj-167",
                    "maxclass": "newobj",
                    "numinlets": 1,
                    "numoutlets": 1,
                    "outlettype": [ "signal" ],
                    "patching_rect": [ 710.0, 1039.0, 31.0, 22.0 ],
                    "text": "sig~"
                }
            },
            {
                "box": {
                    "id": "obj-166",
                    "maxclass": "newobj",
                    "numinlets": 2,
                    "numoutlets": 1,
                    "outlettype": [ "float" ],
                    "patching_rect": [ 915.0, 1158.0, 64.0, 22.0 ],
                    "text": "snapshot~"
                }
            },
            {
                "box": {
                    "format": 6,
                    "id": "obj-156",
                    "maxclass": "flonum",
                    "numinlets": 1,
                    "numoutlets": 2,
                    "outlettype": [ "", "bang" ],
                    "parameter_enable": 0,
                    "patching_rect": [ 742.0, 986.0, 50.0, 22.0 ]
                }
            },
            {
                "box": {
                    "id": "obj-154",
                    "maxclass": "newobj",
                    "numinlets": 6,
                    "numoutlets": 1,
                    "outlettype": [ "" ],
                    "patching_rect": [ 664.0, 942.0, 94.0, 22.0 ],
                    "text": "scale -1. 1. 0. 1."
                }
            },
            {
                "box": {
                    "id": "obj-153",
                    "maxclass": "newobj",
                    "numinlets": 2,
                    "numoutlets": 1,
                    "outlettype": [ "signal" ],
                    "patching_rect": [ 695.0, 1119.0, 34.0, 22.0 ],
                    "text": "*~ 1."
                }
            },
            {
                "box": {
                    "format": 6,
                    "id": "obj-152",
                    "maxclass": "flonum",
                    "numinlets": 1,
                    "numoutlets": 2,
                    "outlettype": [ "", "bang" ],
                    "parameter_enable": 0,
                    "patching_rect": [ 572.0, 1201.0, 50.0, 22.0 ]
                }
            },
            {
                "box": {
                    "id": "obj-150",
                    "maxclass": "message",
                    "numinlets": 2,
                    "numoutlets": 1,
                    "outlettype": [ "" ],
                    "patching_rect": [ 530.0, 1071.0, 39.0, 22.0 ],
                    "text": "$1 50"
                }
            },
            {
                "box": {
                    "id": "obj-148",
                    "maxclass": "newobj",
                    "numinlets": 3,
                    "numoutlets": 2,
                    "outlettype": [ "", "bang" ],
                    "patching_rect": [ 535.25, 1111.0, 41.0, 22.0 ],
                    "text": "line 0."
                }
            },
            {
                "box": {
                    "id": "obj-147",
                    "maxclass": "gain~",
                    "multichannelvariant": 0,
                    "numinlets": 1,
                    "numoutlets": 2,
                    "outlettype": [ "signal", "" ],
                    "parameter_enable": 0,
                    "patching_rect": [ 700.0, 1201.0, 22.0, 140.0 ]
                }
            },
            {
                "box": {
                    "id": "obj-146",
                    "maxclass": "newobj",
                    "numinlets": 6,
                    "numoutlets": 1,
                    "outlettype": [ "" ],
                    "patching_rect": [ 610.0, 986.0, 114.0, 22.0 ],
                    "text": "scale -1. 1. 100 300"
                }
            },
            {
                "box": {
                    "id": "obj-145",
                    "maxclass": "newobj",
                    "numinlets": 2,
                    "numoutlets": 1,
                    "outlettype": [ "signal" ],
                    "patching_rect": [ 610.0, 1061.0, 43.0, 22.0 ],
                    "text": "cycle~"
                }
            },
            {
                "box": {
                    "id": "obj-144",
                    "maxclass": "newobj",
                    "numinlets": 2,
                    "numoutlets": 1,
                    "outlettype": [ "float" ],
                    "patching_rect": [ 1012.0, 716.0, 29.5, 22.0 ],
                    "text": "* 1."
                }
            },
            {
                "box": {
                    "id": "obj-143",
                    "maxclass": "newobj",
                    "numinlets": 2,
                    "numoutlets": 1,
                    "outlettype": [ "float" ],
                    "patching_rect": [ 1055.0, 645.0, 29.5, 22.0 ],
                    "text": "* 1."
                }
            },
            {
                "box": {
                    "id": "obj-48",
                    "maxclass": "number",
                    "numinlets": 1,
                    "numoutlets": 2,
                    "outlettype": [ "", "bang" ],
                    "parameter_enable": 0,
                    "patching_rect": [ 1008.0, 797.0, 50.0, 22.0 ]
                }
            },
            {
                "box": {
                    "id": "obj-44",
                    "maxclass": "newobj",
                    "numinlets": 2,
                    "numoutlets": 1,
                    "outlettype": [ "float" ],
                    "patching_rect": [ 1349.0, 974.0, 29.5, 22.0 ],
                    "text": "+ 0."
                }
            },
            {
                "box": {
                    "bgcolor": [ 0.999996185302734, 0.99993908405304, 0.041033305227757, 1.0 ],
                    "format": 6,
                    "id": "obj-35",
                    "maxclass": "flonum",
                    "numinlets": 1,
                    "numoutlets": 2,
                    "outlettype": [ "", "bang" ],
                    "parameter_enable": 0,
                    "patching_rect": [ 1055.0, 881.0, 59.0, 22.0 ],
                    "textcolor": [ 0.384313725490196, 0.384313725490196, 0.384313725490196, 1.0 ]
                }
            },
            {
                "box": {
                    "id": "obj-34",
                    "maxclass": "newobj",
                    "numinlets": 2,
                    "numoutlets": 1,
                    "outlettype": [ "float" ],
                    "patching_rect": [ 1055.0, 844.0, 29.5, 22.0 ],
                    "text": "+ 0."
                }
            },
            {
                "box": {
                    "id": "obj-40",
                    "maxclass": "message",
                    "numinlets": 2,
                    "numoutlets": 1,
                    "outlettype": [ "" ],
                    "patching_rect": [ 991.0, 1011.0, 29.5, 22.0 ],
                    "text": "120"
                }
            },
            {
                "box": {
                    "id": "obj-113",
                    "linecount": 2,
                    "maxclass": "comment",
                    "numinlets": 1,
                    "numoutlets": 0,
                    "patching_rect": [ 1137.0, 694.0, 105.0, 37.0 ],
                    "presentation_linecount": 2,
                    "text": "試著調整看看黃色數字方框的數值！"
                }
            },
            {
                "box": {
                    "id": "obj-114",
                    "linecount": 8,
                    "maxclass": "comment",
                    "numinlets": 1,
                    "numoutlets": 0,
                    "patching_rect": [ 1370.0, 730.0, 273.0, 117.0 ],
                    "presentation_linecount": 8,
                    "text": "透過數個簡單正弦波來創造複雜的合成音色！\n\n本範例為應用簡單的數學運算（等比例縮放）搭配聲音波形特色，來創造多變的音色。\n\n左邊的Patching中，使用了頻率不同的三個正弦波(cycle~物件)，彼此成為各自的Modulator，其振幅的數值成為線性縮放後的載波上下限變量。"
                }
            },
            {
                "box": {
                    "id": "obj-33",
                    "maxclass": "message",
                    "numinlets": 2,
                    "numoutlets": 1,
                    "outlettype": [ "" ],
                    "patching_rect": [ 1485.0, 938.0, 29.5, 22.0 ],
                    "text": "0"
                }
            },
            {
                "box": {
                    "id": "obj-115",
                    "maxclass": "newobj",
                    "numinlets": 1,
                    "numoutlets": 1,
                    "outlettype": [ "bang" ],
                    "patching_rect": [ 1457.0, 906.0, 58.0, 22.0 ],
                    "text": "loadbang"
                }
            },
            {
                "box": {
                    "id": "obj-116",
                    "maxclass": "preset",
                    "numinlets": 1,
                    "numoutlets": 5,
                    "outlettype": [ "preset", "int", "preset", "int", "" ],
                    "patching_rect": [ 1485.0, 1008.0, 64.0, 41.0 ],
                    "preset_data": [
                        {
                            "number": 1,
                            "data": [ 5, "obj-139", "number", "float", 10.0, 5, "obj-138", "number", "float", 40.0, 5, "obj-134", "number", "float", -0.5, 5, "obj-132", "number", "float", 0.049999997019768, 5, "obj-131", "number", "float", 0.004999999888241, 5, "obj-21", "number", "float", -0.050000000745058, 5, "obj-123", "number", "float", 5.0, 5, "obj-120", "number", "float", 0.5, 5, "obj-35", "number", "float", 20.0, 5, "obj-48", "number", "int", 10 ]
                        },
                        {
                            "number": 2,
                            "data": [ 5, "obj-139", "number", "float", 15000.0, 5, "obj-138", "number", "float", 40.0, 5, "obj-134", "number", "float", 45.0, 5, "obj-132", "number", "float", 75.0, 5, "obj-131", "number", "float", 0.004999999888241, 5, "obj-21", "number", "float", 0.003000000026077, 5, "obj-123", "number", "float", 7500.0, 5, "obj-120", "number", "float", 0.5, 5, "obj-35", "number", "float", 15003.4638671875 ]
                        },
                        {
                            "number": 3,
                            "data": [ 5, "obj-139", "number", "float", 0.26842001080513, 5, "obj-138", "number", "float", 73.0, 5, "obj-134", "number", "float", 1116.3587646484375, 5, "obj-132", "number", "float", 84.01546478271484, 5, "obj-131", "number", "float", 313.0, 5, "obj-21", "number", "float", 4159.0, 5, "obj-123", "number", "float", 21.473600387573242, 5, "obj-120", "number", "float", 80.0, 5, "obj-35", "number", "float", 5.464572429656982 ]
                        },
                        {
                            "number": 4,
                            "data": [ 5, "obj-139", "number", "float", 20.0, 5, "obj-138", "number", "float", 76.0, 5, "obj-134", "number", "float", 660.0, 5, "obj-132", "number", "float", 4.0, 5, "obj-131", "number", "float", 0.200000002980232, 5, "obj-21", "number", "float", 33.0, 5, "obj-123", "number", "float", 115.80000305175781, 5, "obj-120", "number", "float", 5.789999961853027, 5, "obj-35", "number", "float", 29.899494171142578 ]
                        },
                        {
                            "number": 5,
                            "data": [ 5, "obj-139", "number", "float", 15.5, 5, "obj-138", "number", "float", 1510.0, 5, "obj-134", "number", "float", 1364.0, 5, "obj-132", "number", "float", 12.40000057220459, 5, "obj-131", "number", "float", 0.800000011920929, 5, "obj-21", "number", "float", 88.0, 5, "obj-123", "number", "float", 15.5, 5, "obj-120", "number", "float", 1.0, 5, "obj-35", "number", "float", 21.1568546295166 ]
                        },
                        {
                            "number": 6,
                            "data": [ 5, "obj-139", "number", "float", 0.300000011920929, 5, "obj-138", "number", "float", 300.0, 5, "obj-134", "number", "float", 2.9999999242e-05, 5, "obj-132", "number", "float", 0.300000011920929, 5, "obj-131", "number", "float", 1.0, 5, "obj-21", "number", "float", 9.9999997474e-05, 5, "obj-123", "number", "float", 0.150000005960464, 5, "obj-120", "number", "float", 0.5, 5, "obj-35", "number", "float", 50.29999923706055, 5, "obj-48", "number", "int", 50 ]
                        },
                        {
                            "number": 7,
                            "data": [ 5, "obj-139", "number", "float", 2.25, 5, "obj-138", "number", "float", 40.0, 5, "obj-134", "number", "float", -0.224999994039536, 5, "obj-132", "number", "float", 0.112499997019768, 5, "obj-131", "number", "float", 0.050000000745058, 5, "obj-21", "number", "float", -0.100000001490116, 5, "obj-123", "number", "float", 27.0, 5, "obj-120", "number", "float", 12.0, 5, "obj-35", "number", "float", 40.25, 5, "obj-48", "number", "int", 38 ]
                        },
                        {
                            "number": 8,
                            "data": [ 5, "obj-139", "number", "float", 0.26842001080513, 5, "obj-138", "number", "float", 73.0, 5, "obj-134", "number", "float", 1116.3587646484375, 5, "obj-132", "number", "float", 59.05240249633789, 5, "obj-131", "number", "float", 220.0, 5, "obj-21", "number", "float", 4159.0, 5, "obj-123", "number", "float", 7.51576042175293, 5, "obj-120", "number", "float", 28.0, 5, "obj-35", "number", "float", 30.26841926574707, 5, "obj-48", "number", "int", 30 ]
                        },
                        {
                            "number": 9,
                            "data": [ 5, "obj-139", "number", "float", 0.26842001080513, 5, "obj-138", "number", "float", 73.0, 5, "obj-134", "number", "float", 1395.7840576171875, 5, "obj-132", "number", "float", 62.94449234008789, 5, "obj-131", "number", "float", 234.5, 5, "obj-21", "number", "float", 5200.0, 5, "obj-123", "number", "float", -0.644208014011383, 5, "obj-120", "number", "float", -2.400000095367432, 5, "obj-35", "number", "float", 30.26841926574707, 5, "obj-48", "number", "int", 30 ]
                        },
                        {
                            "number": 10,
                            "data": [ 5, "obj-139", "number", "float", 850.0, 5, "obj-138", "number", "float", 73.0, 5, "obj-134", "number", "float", 4420000.0, 5, "obj-132", "number", "float", 193800.0, 5, "obj-131", "number", "float", 228.0, 5, "obj-21", "number", "float", 5200.0, 5, "obj-123", "number", "float", 10200.0, 5, "obj-120", "number", "float", 12.0, 5, "obj-35", "number", "float", 878.0, 5, "obj-48", "number", "int", 28 ]
                        }
                    ]
                }
            },
            {
                "box": {
                    "id": "obj-117",
                    "maxclass": "gain~",
                    "multichannelvariant": 0,
                    "numinlets": 1,
                    "numoutlets": 2,
                    "outlettype": [ "signal", "" ],
                    "parameter_enable": 0,
                    "patching_rect": [ 1055.0, 1111.0, 22.0, 140.0 ]
                }
            },
            {
                "box": {
                    "id": "obj-118",
                    "maxclass": "newobj",
                    "numinlets": 2,
                    "numoutlets": 1,
                    "outlettype": [ "int" ],
                    "patching_rect": [ 1485.0, 975.0, 29.5, 22.0 ],
                    "text": "+ 1"
                }
            },
            {
                "box": {
                    "format": 6,
                    "id": "obj-119",
                    "maxclass": "flonum",
                    "numinlets": 1,
                    "numoutlets": 2,
                    "outlettype": [ "", "bang" ],
                    "parameter_enable": 0,
                    "patching_rect": [ 991.0, 1044.0, 50.0, 22.0 ]
                }
            },
            {
                "box": {
                    "bgcolor": [ 0.999996185302734, 0.99993908405304, 0.041033305227757, 1.0 ],
                    "format": 6,
                    "id": "obj-120",
                    "maxclass": "flonum",
                    "numinlets": 1,
                    "numoutlets": 2,
                    "outlettype": [ "", "bang" ],
                    "parameter_enable": 0,
                    "patching_rect": [ 1305.0, 730.0, 53.0, 22.0 ],
                    "textcolor": [ 0.384313725490196, 0.384313725490196, 0.384313725490196, 1.0 ]
                }
            },
            {
                "box": {
                    "id": "obj-121",
                    "maxclass": "newobj",
                    "numinlets": 2,
                    "numoutlets": 1,
                    "outlettype": [ "float" ],
                    "patching_rect": [ 1305.0, 848.0, 29.5, 22.0 ],
                    "text": "* 1."
                }
            },
            {
                "box": {
                    "id": "obj-122",
                    "maxclass": "newobj",
                    "numinlets": 1,
                    "numoutlets": 2,
                    "outlettype": [ "bang", "float" ],
                    "patching_rect": [ 1305.0, 797.0, 31.0, 22.0 ],
                    "text": "t b f"
                }
            },
            {
                "box": {
                    "format": 6,
                    "id": "obj-123",
                    "maxclass": "flonum",
                    "numinlets": 1,
                    "numoutlets": 2,
                    "outlettype": [ "", "bang" ],
                    "parameter_enable": 0,
                    "patching_rect": [ 1305.0, 881.0, 63.0, 22.0 ]
                }
            },
            {
                "box": {
                    "id": "obj-124",
                    "maxclass": "newobj",
                    "numinlets": 2,
                    "numoutlets": 1,
                    "outlettype": [ "signal" ],
                    "patching_rect": [ 1305.0, 1048.0, 35.0, 22.0 ],
                    "text": "+~ 1"
                }
            },
            {
                "box": {
                    "id": "obj-125",
                    "maxclass": "newobj",
                    "numinlets": 2,
                    "numoutlets": 1,
                    "outlettype": [ "signal" ],
                    "patching_rect": [ 1305.0, 1011.0, 32.0, 22.0 ],
                    "text": "*~ 1"
                }
            },
            {
                "box": {
                    "id": "obj-126",
                    "maxclass": "newobj",
                    "numinlets": 2,
                    "numoutlets": 1,
                    "outlettype": [ "signal" ],
                    "patching_rect": [ 1305.0, 974.0, 35.0, 22.0 ],
                    "text": "+~ 1"
                }
            },
            {
                "box": {
                    "id": "obj-127",
                    "maxclass": "newobj",
                    "numinlets": 2,
                    "numoutlets": 1,
                    "outlettype": [ "signal" ],
                    "patching_rect": [ 1305.0, 920.0, 45.0, 22.0 ],
                    "text": "cycle~"
                }
            },
            {
                "box": {
                    "id": "obj-128",
                    "maxclass": "newobj",
                    "numinlets": 2,
                    "numoutlets": 1,
                    "outlettype": [ "float" ],
                    "patching_rect": [ 1221.0, 848.0, 29.5, 22.0 ],
                    "text": "* 1."
                }
            },
            {
                "box": {
                    "id": "obj-129",
                    "maxclass": "newobj",
                    "numinlets": 1,
                    "numoutlets": 2,
                    "outlettype": [ "bang", "float" ],
                    "patching_rect": [ 1221.0, 797.0, 31.0, 22.0 ],
                    "text": "t b f"
                }
            },
            {
                "box": {
                    "bgcolor": [ 0.999996185302734, 0.99993908405304, 0.041033305227757, 1.0 ],
                    "format": 6,
                    "id": "obj-21",
                    "maxclass": "flonum",
                    "numinlets": 1,
                    "numoutlets": 2,
                    "outlettype": [ "", "bang" ],
                    "parameter_enable": 0,
                    "patching_rect": [ 1221.0, 730.0, 53.0, 22.0 ],
                    "textcolor": [ 0.384313725490196, 0.384313725490196, 0.384313725490196, 1.0 ]
                }
            },
            {
                "box": {
                    "id": "obj-130",
                    "maxclass": "newobj",
                    "numinlets": 1,
                    "numoutlets": 2,
                    "outlettype": [ "bang", "float" ],
                    "patching_rect": [ 1137.0, 797.0, 31.0, 22.0 ],
                    "text": "t b f"
                }
            },
            {
                "box": {
                    "bgcolor": [ 0.999996185302734, 0.99993908405304, 0.041033305227757, 1.0 ],
                    "format": 6,
                    "id": "obj-131",
                    "maxclass": "flonum",
                    "numinlets": 1,
                    "numoutlets": 2,
                    "outlettype": [ "", "bang" ],
                    "parameter_enable": 0,
                    "patching_rect": [ 1137.0, 730.0, 53.0, 22.0 ],
                    "textcolor": [ 0.384313725490196, 0.384313725490196, 0.384313725490196, 1.0 ]
                }
            },
            {
                "box": {
                    "id": "obj-17",
                    "maxclass": "newobj",
                    "numinlets": 2,
                    "numoutlets": 1,
                    "outlettype": [ "float" ],
                    "patching_rect": [ 1136.0, 848.0, 29.5, 22.0 ],
                    "text": "* 1."
                }
            },
            {
                "box": {
                    "format": 6,
                    "id": "obj-132",
                    "maxclass": "flonum",
                    "numinlets": 1,
                    "numoutlets": 2,
                    "outlettype": [ "", "bang" ],
                    "parameter_enable": 0,
                    "patching_rect": [ 1136.0, 881.0, 63.0, 22.0 ]
                }
            },
            {
                "box": {
                    "id": "obj-133",
                    "maxclass": "newobj",
                    "numinlets": 2,
                    "numoutlets": 1,
                    "outlettype": [ "signal" ],
                    "patching_rect": [ 1136.0, 920.0, 45.0, 22.0 ],
                    "text": "cycle~"
                }
            },
            {
                "box": {
                    "format": 6,
                    "id": "obj-134",
                    "maxclass": "flonum",
                    "numinlets": 1,
                    "numoutlets": 2,
                    "outlettype": [ "", "bang" ],
                    "parameter_enable": 0,
                    "patching_rect": [ 1221.0, 881.0, 63.0, 22.0 ]
                }
            },
            {
                "box": {
                    "id": "obj-135",
                    "maxclass": "newobj",
                    "numinlets": 2,
                    "numoutlets": 1,
                    "outlettype": [ "signal" ],
                    "patching_rect": [ 1221.0, 920.0, 45.0, 22.0 ],
                    "text": "cycle~"
                }
            },
            {
                "box": {
                    "calccount": 2,
                    "id": "obj-136",
                    "maxclass": "scope~",
                    "numinlets": 2,
                    "numoutlets": 0,
                    "patching_rect": [ 1345.0, 1111.0, 130.0, 99.0 ]
                }
            },
            {
                "box": {
                    "domain": [ 0.0, 11025.0 ],
                    "id": "obj-137",
                    "maxclass": "spectroscope~",
                    "numinlets": 2,
                    "numoutlets": 1,
                    "outlettype": [ "" ],
                    "patching_rect": [ 1107.0, 1111.0, 233.0, 99.0 ]
                }
            },
            {
                "box": {
                    "format": 6,
                    "id": "obj-138",
                    "maxclass": "flonum",
                    "numinlets": 1,
                    "numoutlets": 2,
                    "outlettype": [ "", "bang" ],
                    "parameter_enable": 0,
                    "patching_rect": [ 1359.0, 920.0, 54.0, 22.0 ]
                }
            },
            {
                "box": {
                    "bgcolor": [ 0.999996185302734, 0.99993908405304, 0.041033305227757, 1.0 ],
                    "format": 6,
                    "id": "obj-139",
                    "maxclass": "flonum",
                    "numinlets": 1,
                    "numoutlets": 2,
                    "outlettype": [ "", "bang" ],
                    "parameter_enable": 0,
                    "patching_rect": [ 1066.0, 797.0, 59.0, 22.0 ],
                    "textcolor": [ 0.384313725490196, 0.384313725490196, 0.384313725490196, 1.0 ]
                }
            },
            {
                "box": {
                    "id": "obj-140",
                    "maxclass": "newobj",
                    "numinlets": 2,
                    "numoutlets": 1,
                    "outlettype": [ "signal" ],
                    "patching_rect": [ 1055.0, 920.0, 45.0, 22.0 ],
                    "text": "cycle~"
                }
            },
            {
                "box": {
                    "id": "obj-141",
                    "maxclass": "newobj",
                    "numinlets": 6,
                    "numoutlets": 1,
                    "outlettype": [ "signal" ],
                    "patching_rect": [ 1055.0, 1044.0, 154.0, 22.0 ],
                    "text": "scale~ -1 1 -1 1 @classic 0"
                }
            },
            {
                "box": {
                    "id": "obj-70",
                    "maxclass": "newobj",
                    "numinlets": 4,
                    "numoutlets": 2,
                    "outlettype": [ "signal", "signal" ],
                    "patching_rect": [ 899.0, 850.0, 50.5, 22.0 ],
                    "text": "pan2"
                }
            },
            {
                "box": {
                    "id": "obj-68",
                    "maxclass": "newobj",
                    "numinlets": 6,
                    "numoutlets": 1,
                    "outlettype": [ "" ],
                    "patching_rect": [ 275.0, 867.0, 103.0, 22.0 ],
                    "text": "scale 0. 1.5 0 127"
                }
            },
            {
                "box": {
                    "format": 6,
                    "id": "obj-67",
                    "maxclass": "flonum",
                    "numinlets": 1,
                    "numoutlets": 2,
                    "outlettype": [ "", "bang" ],
                    "parameter_enable": 0,
                    "patching_rect": [ 334.5, 824.0, 50.0, 22.0 ]
                }
            },
            {
                "box": {
                    "format": 6,
                    "id": "obj-66",
                    "maxclass": "flonum",
                    "numinlets": 1,
                    "numoutlets": 2,
                    "outlettype": [ "", "bang" ],
                    "parameter_enable": 0,
                    "patching_rect": [ 275.0, 824.0, 50.0, 22.0 ]
                }
            },
            {
                "box": {
                    "id": "obj-63",
                    "maxclass": "newobj",
                    "numinlets": 2,
                    "numoutlets": 2,
                    "outlettype": [ "float", "float" ],
                    "patching_rect": [ 290.0, 750.0, 51.0, 22.0 ],
                    "text": "cartopol"
                }
            },
            {
                "box": {
                    "id": "obj-58",
                    "maxclass": "newobj",
                    "numinlets": 2,
                    "numoutlets": 1,
                    "outlettype": [ "" ],
                    "patching_rect": [ 574.0, 824.0, 66.0, 22.0 ],
                    "text": "random 12"
                }
            },
            {
                "box": {
                    "id": "obj-59",
                    "maxclass": "newobj",
                    "numinlets": 3,
                    "numoutlets": 0,
                    "patching_rect": [ 574.0, 933.0, 49.0, 22.0 ],
                    "text": "noteout"
                }
            },
            {
                "box": {
                    "id": "obj-60",
                    "maxclass": "newobj",
                    "numinlets": 3,
                    "numoutlets": 2,
                    "outlettype": [ "float", "float" ],
                    "patching_rect": [ 574.0, 880.0, 101.0, 22.0 ],
                    "text": "makenote 88 500"
                }
            },
            {
                "box": {
                    "id": "obj-57",
                    "maxclass": "newobj",
                    "numinlets": 2,
                    "numoutlets": 1,
                    "outlettype": [ "" ],
                    "patching_rect": [ 485.0, 824.0, 66.0, 22.0 ],
                    "text": "random 12"
                }
            },
            {
                "box": {
                    "id": "obj-56",
                    "maxclass": "newobj",
                    "numinlets": 3,
                    "numoutlets": 0,
                    "patching_rect": [ 449.25, 933.0, 49.0, 22.0 ],
                    "text": "noteout"
                }
            },
            {
                "box": {
                    "id": "obj-55",
                    "maxclass": "newobj",
                    "numinlets": 3,
                    "numoutlets": 2,
                    "outlettype": [ "float", "float" ],
                    "patching_rect": [ 449.25, 880.0, 101.0, 22.0 ],
                    "text": "makenote 88 500"
                }
            },
            {
                "box": {
                    "id": "obj-54",
                    "maxclass": "message",
                    "numinlets": 2,
                    "numoutlets": 1,
                    "outlettype": [ "" ],
                    "patching_rect": [ 837.0, 651.0, 29.5, 22.0 ],
                    "text": "1"
                }
            },
            {
                "box": {
                    "id": "obj-53",
                    "lastchannelcount": 0,
                    "maxclass": "live.gain~",
                    "numinlets": 2,
                    "numoutlets": 5,
                    "outlettype": [ "signal", "signal", "", "float", "list" ],
                    "parameter_enable": 1,
                    "patching_rect": [ 808.0, 850.0, 48.0, 136.0 ],
                    "saved_attribute_attributes": {
                        "valueof": {
                            "parameter_longname": "live.gain~",
                            "parameter_mmax": 6.0,
                            "parameter_mmin": -70.0,
                            "parameter_modmode": 3,
                            "parameter_shortname": "live.gain~",
                            "parameter_type": 0,
                            "parameter_unitstyle": 4
                        }
                    },
                    "varname": "live.gain~"
                }
            },
            {
                "box": {
                    "id": "obj-50",
                    "maxclass": "newobj",
                    "numinlets": 2,
                    "numoutlets": 0,
                    "patching_rect": [ 814.5, 1061.0, 35.0, 22.0 ],
                    "text": "dac~"
                }
            },
            {
                "box": {
                    "id": "obj-49",
                    "maxclass": "message",
                    "numinlets": 2,
                    "numoutlets": 1,
                    "outlettype": [ "" ],
                    "patching_rect": [ 680.0, 662.0, 29.5, 22.0 ],
                    "text": "1"
                }
            },
            {
                "box": {
                    "data": {
                        "clips": [
                            {
                                "absolutepath": "/Users/chipohao/Documents/Loops 素材/ZEN_AMBIENT/AMI_SOUNDS_&_FX/AM1_SANSULA/AM1_Sansula_C3_Single.wav",
                                "filename": "AM1_Sansula_C3_Single.wav",
                                "filekind": "audiofile",
                                "id": "u060004341",
                                "loop": 0,
                                "content_state": {                                }
                            }
                        ]
                    },
                    "id": "obj-47",
                    "maxclass": "playlist~",
                    "mode": "basic",
                    "numinlets": 1,
                    "numoutlets": 5,
                    "outlettype": [ "signal", "signal", "signal", "", "dictionary" ],
                    "parameter_enable": 0,
                    "patching_rect": [ 680.0, 697.0, 150.0, 30.0 ],
                    "quality": "basic",
                    "saved_attribute_attributes": {
                        "candicane2": {
                            "expression": ""
                        },
                        "candicane3": {
                            "expression": ""
                        },
                        "candicane4": {
                            "expression": ""
                        },
                        "candicane5": {
                            "expression": ""
                        },
                        "candicane6": {
                            "expression": ""
                        },
                        "candicane7": {
                            "expression": ""
                        },
                        "candicane8": {
                            "expression": ""
                        }
                    }
                }
            },
            {
                "box": {
                    "data": {
                        "clips": [
                            {
                                "absolutepath": "/Users/chipohao/Documents/Loops 素材/ZEN_AMBIENT/AMI_SOUNDS_&_FX/AM1_SANSULA/AM1_Sansula_B3_Single.wav",
                                "filename": "AM1_Sansula_B3_Single.wav",
                                "filekind": "audiofile",
                                "id": "u833004328",
                                "loop": 0,
                                "content_state": {                                }
                            }
                        ]
                    },
                    "id": "obj-45",
                    "maxclass": "playlist~",
                    "mode": "basic",
                    "numinlets": 1,
                    "numoutlets": 5,
                    "outlettype": [ "signal", "signal", "signal", "", "dictionary" ],
                    "parameter_enable": 0,
                    "patching_rect": [ 837.0, 697.0, 150.0, 30.0 ],
                    "quality": "basic",
                    "saved_attribute_attributes": {
                        "candicane2": {
                            "expression": ""
                        },
                        "candicane3": {
                            "expression": ""
                        },
                        "candicane4": {
                            "expression": ""
                        },
                        "candicane5": {
                            "expression": ""
                        },
                        "candicane6": {
                            "expression": ""
                        },
                        "candicane7": {
                            "expression": ""
                        },
                        "candicane8": {
                            "expression": ""
                        }
                    }
                }
            },
            {
                "box": {
                    "id": "obj-42",
                    "maxclass": "button",
                    "numinlets": 1,
                    "numoutlets": 1,
                    "outlettype": [ "bang" ],
                    "parameter_enable": 0,
                    "patching_rect": [ 485.0, 781.0, 24.0, 24.0 ]
                }
            },
            {
                "box": {
                    "id": "obj-41",
                    "maxclass": "button",
                    "numinlets": 1,
                    "numoutlets": 1,
                    "outlettype": [ "bang" ],
                    "parameter_enable": 0,
                    "patching_rect": [ 555.5, 781.0, 24.0, 24.0 ]
                }
            },
            {
                "box": {
                    "id": "obj-39",
                    "maxclass": "newobj",
                    "numinlets": 1,
                    "numoutlets": 3,
                    "outlettype": [ "", "int", "int" ],
                    "patching_rect": [ 541.0, 744.0, 48.0, 22.0 ],
                    "text": "change"
                }
            },
            {
                "box": {
                    "id": "obj-38",
                    "maxclass": "newobj",
                    "numinlets": 1,
                    "numoutlets": 3,
                    "outlettype": [ "", "int", "int" ],
                    "patching_rect": [ 485.0, 744.0, 48.0, 22.0 ],
                    "text": "change"
                }
            },
            {
                "box": {
                    "id": "obj-37",
                    "maxclass": "newobj",
                    "numinlets": 2,
                    "numoutlets": 1,
                    "outlettype": [ "int" ],
                    "patching_rect": [ 541.0, 710.0, 29.5, 22.0 ],
                    "text": "> 0."
                }
            },
            {
                "box": {
                    "id": "obj-36",
                    "maxclass": "newobj",
                    "numinlets": 2,
                    "numoutlets": 1,
                    "outlettype": [ "int" ],
                    "patching_rect": [ 485.0, 710.0, 29.5, 22.0 ],
                    "text": "> 0."
                }
            },
            {
                "box": {
                    "format": 6,
                    "id": "obj-32",
                    "maxclass": "flonum",
                    "numinlets": 1,
                    "numoutlets": 2,
                    "outlettype": [ "", "bang" ],
                    "parameter_enable": 0,
                    "patching_rect": [ 541.0, 675.0, 50.0, 22.0 ]
                }
            },
            {
                "box": {
                    "format": 6,
                    "id": "obj-30",
                    "maxclass": "flonum",
                    "numinlets": 1,
                    "numoutlets": 2,
                    "outlettype": [ "", "bang" ],
                    "parameter_enable": 0,
                    "patching_rect": [ 485.0, 675.0, 50.0, 22.0 ]
                }
            },
            {
                "box": {
                    "id": "obj-20",
                    "maxclass": "newobj",
                    "numinlets": 3,
                    "numoutlets": 3,
                    "outlettype": [ "", "", "" ],
                    "patching_rect": [ 485.0, 632.0, 108.0, 22.0 ],
                    "text": "route /pen/x /pen/y"
                }
            },
            {
                "box": {
                    "id": "obj-18",
                    "maxclass": "message",
                    "numinlets": 2,
                    "numoutlets": 1,
                    "outlettype": [ "" ],
                    "patching_rect": [ 411.0, -63.0, 69.0, 22.0 ],
                    "text": "readfile"
                }
            },
            {
                "box": {
                    "disablefind": 0,
                    "id": "obj-6",
                    "maxclass": "jweb",
                    "numinlets": 1,
                    "numoutlets": 1,
                    "outlettype": [ "" ],
                    "patching_rect": [ 485.0, -63.0, 824.0, 683.0 ],
                    "rendermode": 0,
                    "url": "file://heartbeats-harmony.html"
                }
            },
            {
                "box": {
                    "id": "obj-15",
                    "maxclass": "newobj",
                    "numinlets": 3,
                    "numoutlets": 1,
                    "outlettype": [ "float" ],
                    "patching_rect": [ 3.5, 496.0, 53.0, 22.0 ],
                    "text": "slide 3 3"
                }
            },
            {
                "box": {
                    "id": "obj-10",
                    "maxclass": "multislider",
                    "numinlets": 1,
                    "numoutlets": 2,
                    "outlettype": [ "", "" ],
                    "parameter_enable": 0,
                    "patching_rect": [ 5.0, 536.0, 185.0, 169.0 ],
                    "setminmax": [ 1800.0, 2000.0 ],
                    "setstyle": 5
                }
            },
            {
                "box": {
                    "id": "obj-2",
                    "maxclass": "multislider",
                    "numinlets": 1,
                    "numoutlets": 2,
                    "outlettype": [ "", "" ],
                    "parameter_enable": 0,
                    "patching_rect": [ 206.5, 470.0, 241.0, 179.0 ],
                    "setminmax": [ 1800.0, 2000.0 ],
                    "setstyle": 5
                }
            },
            {
                "box": {
                    "id": "obj-31",
                    "maxclass": "toggle",
                    "numinlets": 1,
                    "numoutlets": 1,
                    "outlettype": [ "int" ],
                    "parameter_enable": 0,
                    "patching_rect": [ 235.0, 420.0, 24.0, 24.0 ]
                }
            },
            {
                "box": {
                    "id": "obj-29",
                    "maxclass": "newobj",
                    "numinlets": 2,
                    "numoutlets": 1,
                    "outlettype": [ "int" ],
                    "patching_rect": [ 228.5, 381.0, 46.0, 22.0 ],
                    "text": "> 1900"
                }
            },
            {
                "box": {
                    "id": "obj-25",
                    "maxclass": "toggle",
                    "numinlets": 1,
                    "numoutlets": 1,
                    "outlettype": [ "int" ],
                    "parameter_enable": 0,
                    "patching_rect": [ 414.5, 321.0, 24.0, 24.0 ]
                }
            },
            {
                "box": {
                    "id": "obj-22",
                    "maxclass": "toggle",
                    "numinlets": 1,
                    "numoutlets": 1,
                    "outlettype": [ "int" ],
                    "parameter_enable": 0,
                    "patching_rect": [ 151.0, 412.0, 24.0, 24.0 ]
                }
            },
            {
                "box": {
                    "id": "obj-19",
                    "maxclass": "message",
                    "numinlets": 2,
                    "numoutlets": 1,
                    "outlettype": [ "" ],
                    "patching_rect": [ 101.0, 188.0, 50.0, 22.0 ],
                    "text": "32"
                }
            },
            {
                "box": {
                    "id": "obj-7",
                    "maxclass": "message",
                    "numinlets": 2,
                    "numoutlets": 1,
                    "outlettype": [ "" ],
                    "patching_rect": [ 414.5, 381.0, 50.0, 22.0 ],
                    "text": "0"
                }
            },
            {
                "box": {
                    "id": "obj-8",
                    "maxclass": "message",
                    "numinlets": 2,
                    "numoutlets": 1,
                    "outlettype": [ "" ],
                    "patching_rect": [ 356.5, 381.0, 50.0, 22.0 ],
                    "text": "117"
                }
            },
            {
                "box": {
                    "id": "obj-9",
                    "maxclass": "message",
                    "numinlets": 2,
                    "numoutlets": 1,
                    "outlettype": [ "" ],
                    "patching_rect": [ 290.5, 381.0, 50.0, 22.0 ],
                    "text": "1857"
                }
            },
            {
                "box": {
                    "id": "obj-5",
                    "maxclass": "message",
                    "numinlets": 2,
                    "numoutlets": 1,
                    "outlettype": [ "" ],
                    "patching_rect": [ 131.0, 460.0, 50.0, 22.0 ],
                    "text": "0"
                }
            },
            {
                "box": {
                    "id": "obj-4",
                    "maxclass": "message",
                    "numinlets": 2,
                    "numoutlets": 1,
                    "outlettype": [ "" ],
                    "patching_rect": [ 71.0, 460.0, 50.0, 22.0 ],
                    "text": "170"
                }
            },
            {
                "box": {
                    "id": "obj-3",
                    "maxclass": "message",
                    "numinlets": 2,
                    "numoutlets": 1,
                    "outlettype": [ "" ],
                    "patching_rect": [ 21.5, 436.0, 50.0, 22.0 ],
                    "text": "1845"
                }
            },
            {
                "box": {
                    "id": "obj-1",
                    "linecount": 2,
                    "maxclass": "newobj",
                    "numinlets": 4,
                    "numoutlets": 4,
                    "outlettype": [ "", "", "", "" ],
                    "patching_rect": [ 206.5, 277.0, 241.0, 35.0 ],
                    "text": "route /pulse/userB/raw /pulse/userB/bpm /pulse/userB/beat"
                }
            },
            {
                "box": {
                    "id": "obj-43",
                    "linecount": 3,
                    "maxclass": "newobj",
                    "numinlets": 4,
                    "numoutlets": 4,
                    "outlettype": [ "", "", "", "" ],
                    "patching_rect": [ -3.0, 348.0, 178.0, 49.0 ],
                    "text": "route /pulse/userA/raw /pulse/userA/bpm /pulse/userA/beat"
                }
            },
            {
                "box": {
                    "fontname": "Trebuchet MS",
                    "fontsize": 12.0,
                    "id": "obj-61",
                    "maxclass": "newobj",
                    "numinlets": 1,
                    "numoutlets": 1,
                    "outlettype": [ "bang" ],
                    "patching_rect": [ 120.5, 3.0, 59.0, 22.0 ],
                    "text": "loadbang"
                }
            },
            {
                "box": {
                    "fontname": "Trebuchet MS",
                    "fontsize": 12.0,
                    "id": "obj-77",
                    "maxclass": "newobj",
                    "numinlets": 1,
                    "numoutlets": 1,
                    "outlettype": [ "clear" ],
                    "patcher": {
                        "fileversion": 1,
                        "appversion": {
                            "major": 9,
                            "minor": 1,
                            "revision": 1,
                            "architecture": "x64",
                            "modernui": 1
                        },
                        "classnamespace": "box",
                        "rect": [ 134.0, 165.0, 667.0, 547.0 ],
                        "boxes": [
                            {
                                "box": {
                                    "fontname": "Arial",
                                    "fontsize": 12.0,
                                    "id": "obj-10",
                                    "maxclass": "message",
                                    "numinlets": 2,
                                    "numoutlets": 1,
                                    "outlettype": [ "" ],
                                    "patching_rect": [ 148.0, 212.0, 52.0, 22.0 ],
                                    "text": "select..."
                                }
                            },
                            {
                                "box": {
                                    "fontname": "Arial",
                                    "fontsize": 12.0,
                                    "id": "obj-8",
                                    "maxclass": "newobj",
                                    "numinlets": 1,
                                    "numoutlets": 3,
                                    "outlettype": [ "print", "bang", "clear" ],
                                    "patching_rect": [ 51.0, 76.0, 80.0, 22.0 ],
                                    "text": "t print b clear"
                                }
                            },
                            {
                                "box": {
                                    "fontname": "Arial",
                                    "fontsize": 10.0,
                                    "id": "obj-1",
                                    "maxclass": "newobj",
                                    "numinlets": 2,
                                    "numoutlets": 2,
                                    "outlettype": [ "", "" ],
                                    "patching_rect": [ 90.0, 171.0, 56.0, 20.0 ],
                                    "text": "route port"
                                }
                            },
                            {
                                "box": {
                                    "fontname": "Arial",
                                    "fontsize": 10.0,
                                    "id": "obj-3",
                                    "maxclass": "newobj",
                                    "numinlets": 1,
                                    "numoutlets": 1,
                                    "outlettype": [ "" ],
                                    "patching_rect": [ 90.0, 358.0, 111.0, 20.0 ],
                                    "text": "prepend append"
                                }
                            },
                            {
                                "box": {
                                    "fontname": "Arial",
                                    "fontsize": 10.0,
                                    "id": "obj-4",
                                    "maxclass": "newobj",
                                    "numinlets": 1,
                                    "numoutlets": 2,
                                    "outlettype": [ "int", "" ],
                                    "patching_rect": [ 64.0, 115.0, 36.0, 20.0 ],
                                    "text": "serial"
                                }
                            },
                            {
                                "box": {
                                    "fontname": "Arial",
                                    "fontsize": 10.0,
                                    "id": "obj-5",
                                    "maxclass": "newobj",
                                    "numinlets": 1,
                                    "numoutlets": 1,
                                    "outlettype": [ "" ],
                                    "patching_rect": [ 31.0, 271.0, 25.0, 20.0 ],
                                    "text": "iter"
                                }
                            },
                            {
                                "box": {
                                    "comment": "",
                                    "id": "obj-6",
                                    "index": 1,
                                    "maxclass": "inlet",
                                    "numinlets": 0,
                                    "numoutlets": 1,
                                    "outlettype": [ "" ],
                                    "patching_rect": [ 64.0, 45.0, 15.0, 15.0 ]
                                }
                            },
                            {
                                "box": {
                                    "comment": "",
                                    "id": "obj-7",
                                    "index": 1,
                                    "maxclass": "outlet",
                                    "numinlets": 1,
                                    "numoutlets": 0,
                                    "patching_rect": [ 148.0, 432.0, 15.0, 15.0 ]
                                }
                            }
                        ],
                        "lines": [
                            {
                                "patchline": {
                                    "destination": [ "obj-5", 0 ],
                                    "source": [ "obj-1", 0 ]
                                }
                            },
                            {
                                "patchline": {
                                    "destination": [ "obj-3", 0 ],
                                    "midpoints": [ 106.0, 260.0 ],
                                    "source": [ "obj-10", 0 ]
                                }
                            },
                            {
                                "patchline": {
                                    "destination": [ "obj-7", 0 ],
                                    "source": [ "obj-3", 0 ]
                                }
                            },
                            {
                                "patchline": {
                                    "destination": [ "obj-1", 0 ],
                                    "source": [ "obj-4", 1 ]
                                }
                            },
                            {
                                "patchline": {
                                    "destination": [ "obj-3", 0 ],
                                    "source": [ "obj-5", 0 ]
                                }
                            },
                            {
                                "patchline": {
                                    "destination": [ "obj-8", 0 ],
                                    "source": [ "obj-6", 0 ]
                                }
                            },
                            {
                                "patchline": {
                                    "destination": [ "obj-10", 0 ],
                                    "midpoints": [ 229.0, 217.0 ],
                                    "source": [ "obj-8", 1 ]
                                }
                            },
                            {
                                "patchline": {
                                    "destination": [ "obj-4", 0 ],
                                    "source": [ "obj-8", 0 ]
                                }
                            },
                            {
                                "patchline": {
                                    "destination": [ "obj-7", 0 ],
                                    "midpoints": [ 364.0, 251.0 ],
                                    "source": [ "obj-8", 2 ]
                                }
                            }
                        ]
                    },
                    "patching_rect": [ 120.5, 62.0, 61.0, 22.0 ],
                    "text": "p devices"
                }
            },
            {
                "box": {
                    "fontname": "Trebuchet MS",
                    "fontsize": 12.0,
                    "id": "obj-64",
                    "maxclass": "message",
                    "numinlets": 2,
                    "numoutlets": 1,
                    "outlettype": [ "" ],
                    "patching_rect": [ 120.5, 32.0177, 48.0, 22.0 ],
                    "presentation": 1,
                    "presentation_rect": [ 84.5, 109.214874, 48.0, 22.0 ],
                    "text": "update"
                }
            },
            {
                "box": {
                    "fontname": "Verdana",
                    "fontsize": 9.0,
                    "id": "obj-16",
                    "maxclass": "newobj",
                    "numinlets": 1,
                    "numoutlets": 1,
                    "outlettype": [ "" ],
                    "patcher": {
                        "fileversion": 1,
                        "appversion": {
                            "major": 9,
                            "minor": 1,
                            "revision": 1,
                            "architecture": "x64",
                            "modernui": 1
                        },
                        "classnamespace": "box",
                        "rect": [ 519.0, 114.0, 213.0, 363.0 ],
                        "default_fontname": "Verdana",
                        "boxes": [
                            {
                                "box": {
                                    "id": "obj-1",
                                    "maxclass": "button",
                                    "numinlets": 1,
                                    "numoutlets": 1,
                                    "outlettype": [ "bang" ],
                                    "parameter_enable": 0,
                                    "patching_rect": [ 114.0, 142.0, 15.0, 15.0 ]
                                }
                            },
                            {
                                "box": {
                                    "fontname": "Verdana",
                                    "fontsize": 9.0,
                                    "id": "obj-2",
                                    "maxclass": "message",
                                    "numinlets": 2,
                                    "numoutlets": 1,
                                    "outlettype": [ "" ],
                                    "patching_rect": [ 114.0, 168.0, 33.0, 15.0 ],
                                    "text": "clear"
                                }
                            },
                            {
                                "box": {
                                    "fontname": "Verdana",
                                    "fontsize": 9.0,
                                    "id": "obj-3",
                                    "linecount": 2,
                                    "maxclass": "newobj",
                                    "numinlets": 1,
                                    "numoutlets": 1,
                                    "outlettype": [ "" ],
                                    "patching_rect": [ 24.0, 167.0, 78.0, 28.0 ],
                                    "text": "prepend append"
                                }
                            },
                            {
                                "box": {
                                    "fontname": "Verdana",
                                    "fontsize": 9.0,
                                    "id": "obj-4",
                                    "maxclass": "newobj",
                                    "numinlets": 2,
                                    "numoutlets": 2,
                                    "outlettype": [ "", "" ],
                                    "patching_rect": [ 24.0, 116.0, 47.0, 17.0 ],
                                    "text": "zl iter 1"
                                }
                            },
                            {
                                "box": {
                                    "fontname": "Verdana",
                                    "fontsize": 9.0,
                                    "id": "obj-5",
                                    "maxclass": "newobj",
                                    "numinlets": 2,
                                    "numoutlets": 2,
                                    "outlettype": [ "", "" ],
                                    "patching_rect": [ 24.0, 76.0, 56.0, 17.0 ],
                                    "text": "route port"
                                }
                            },
                            {
                                "box": {
                                    "comment": "",
                                    "id": "obj-6",
                                    "index": 1,
                                    "maxclass": "outlet",
                                    "numinlets": 1,
                                    "numoutlets": 0,
                                    "patching_rect": [ 24.0, 246.0, 16.0, 16.0 ]
                                }
                            },
                            {
                                "box": {
                                    "comment": "",
                                    "id": "obj-7",
                                    "index": 1,
                                    "maxclass": "inlet",
                                    "numinlets": 0,
                                    "numoutlets": 1,
                                    "outlettype": [ "" ],
                                    "patching_rect": [ 24.0, 32.0, 16.0, 16.0 ]
                                }
                            }
                        ],
                        "lines": [
                            {
                                "patchline": {
                                    "destination": [ "obj-2", 0 ],
                                    "source": [ "obj-1", 0 ]
                                }
                            },
                            {
                                "patchline": {
                                    "destination": [ "obj-6", 0 ],
                                    "source": [ "obj-2", 0 ]
                                }
                            },
                            {
                                "patchline": {
                                    "destination": [ "obj-6", 0 ],
                                    "source": [ "obj-3", 0 ]
                                }
                            },
                            {
                                "patchline": {
                                    "destination": [ "obj-3", 0 ],
                                    "source": [ "obj-4", 0 ]
                                }
                            },
                            {
                                "patchline": {
                                    "destination": [ "obj-1", 0 ],
                                    "order": 0,
                                    "source": [ "obj-5", 0 ]
                                }
                            },
                            {
                                "patchline": {
                                    "destination": [ "obj-4", 0 ],
                                    "order": 1,
                                    "source": [ "obj-5", 0 ]
                                }
                            },
                            {
                                "patchline": {
                                    "destination": [ "obj-5", 0 ],
                                    "source": [ "obj-7", 0 ]
                                }
                            }
                        ]
                    },
                    "patching_rect": [ 204.5, 172.0, 72.0, 19.0 ],
                    "saved_object_attributes": {
                        "fontname": "Verdana"
                    },
                    "text": "p createMenu"
                }
            },
            {
                "box": {
                    "bgcolor": [ 0.635294, 0.803922, 0.490196, 1.0 ],
                    "bgfillcolor_angle": 270.0,
                    "bgfillcolor_color": [ 0.635294, 0.803922, 0.490196, 1.0 ],
                    "bgfillcolor_color1": [ 0.376471, 0.384314, 0.4, 1.0 ],
                    "bgfillcolor_color2": [ 0.290196, 0.309804, 0.301961, 1.0 ],
                    "bgfillcolor_proportion": 0.39,
                    "bgfillcolor_type": "color",
                    "fontname": "Verdana",
                    "fontsize": 9.0,
                    "id": "obj-23",
                    "items": [ "select...", ",", "BLTH", ",", "HookeVerse", ",", "Bluetooth-Incoming-Port", ",", "macMacBookPro", ",", "NS-83", ",", "F4", ",", "BigAirpod", ",", "usbserial-1430" ],
                    "labelclick": 1,
                    "maxclass": "umenu",
                    "numinlets": 1,
                    "numoutlets": 3,
                    "outlettype": [ "int", "", "" ],
                    "parameter_enable": 0,
                    "patching_rect": [ 120.5, 94.0, 149.0, 19.0 ],
                    "textcolor": [ 0.0, 0.0, 0.0, 1.0 ]
                }
            },
            {
                "box": {
                    "fontname": "Verdana",
                    "fontsize": 9.0,
                    "id": "obj-24",
                    "maxclass": "newobj",
                    "numinlets": 1,
                    "numoutlets": 1,
                    "outlettype": [ "" ],
                    "patching_rect": [ 185.5, 119.0, 68.0, 19.0 ],
                    "text": "prepend port"
                }
            },
            {
                "box": {
                    "id": "obj-26",
                    "maxclass": "toggle",
                    "numinlets": 1,
                    "numoutlets": 1,
                    "outlettype": [ "int" ],
                    "parameter_enable": 0,
                    "patching_rect": [ 31.5, 82.0, 19.0, 19.0 ]
                }
            },
            {
                "box": {
                    "fontname": "Verdana",
                    "fontsize": 9.0,
                    "id": "obj-27",
                    "maxclass": "newobj",
                    "numinlets": 2,
                    "numoutlets": 1,
                    "outlettype": [ "bang" ],
                    "patching_rect": [ 31.5, 107.0, 50.0, 19.0 ],
                    "text": "metro 33"
                }
            },
            {
                "box": {
                    "fontname": "Verdana",
                    "fontsize": 9.0,
                    "id": "obj-11",
                    "maxclass": "newobj",
                    "numinlets": 1,
                    "numoutlets": 1,
                    "outlettype": [ "" ],
                    "patching_rect": [ 31.5, 277.0, 64.0, 19.0 ],
                    "text": "fromsymbol"
                }
            },
            {
                "box": {
                    "fontname": "Verdana",
                    "fontsize": 9.0,
                    "id": "obj-12",
                    "maxclass": "newobj",
                    "numinlets": 3,
                    "numoutlets": 1,
                    "outlettype": [ "int" ],
                    "patching_rect": [ 31.5, 242.0, 40.0, 19.0 ],
                    "text": "itoa"
                }
            },
            {
                "box": {
                    "fontname": "Verdana",
                    "fontsize": 9.0,
                    "id": "obj-13",
                    "maxclass": "newobj",
                    "numinlets": 2,
                    "numoutlets": 2,
                    "outlettype": [ "", "" ],
                    "patching_rect": [ 31.5, 210.0, 71.0, 19.0 ],
                    "text": "zl group 1000"
                }
            },
            {
                "box": {
                    "fontname": "Verdana",
                    "fontsize": 9.0,
                    "id": "obj-14",
                    "maxclass": "newobj",
                    "numinlets": 2,
                    "numoutlets": 2,
                    "outlettype": [ "bang", "" ],
                    "patching_rect": [ 31.5, 181.0, 36.0, 19.0 ],
                    "text": "sel 10"
                }
            },
            {
                "box": {
                    "fontname": "Verdana",
                    "fontsize": 9.0,
                    "id": "obj-28",
                    "maxclass": "newobj",
                    "numinlets": 1,
                    "numoutlets": 2,
                    "outlettype": [ "int", "" ],
                    "patching_rect": [ 31.5, 146.0, 103.0, 19.0 ],
                    "text": "serial f 115200 8 1 0"
                }
            }
        ],
        "lines": [
            {
                "patchline": {
                    "destination": [ "obj-2", 0 ],
                    "order": 2,
                    "source": [ "obj-1", 0 ]
                }
            },
            {
                "patchline": {
                    "destination": [ "obj-25", 0 ],
                    "order": 1,
                    "source": [ "obj-1", 2 ]
                }
            },
            {
                "patchline": {
                    "destination": [ "obj-29", 0 ],
                    "order": 1,
                    "source": [ "obj-1", 0 ]
                }
            },
            {
                "patchline": {
                    "destination": [ "obj-7", 1 ],
                    "order": 0,
                    "source": [ "obj-1", 2 ]
                }
            },
            {
                "patchline": {
                    "destination": [ "obj-8", 1 ],
                    "source": [ "obj-1", 1 ]
                }
            },
            {
                "patchline": {
                    "destination": [ "obj-9", 1 ],
                    "order": 0,
                    "source": [ "obj-1", 0 ]
                }
            },
            {
                "patchline": {
                    "destination": [ "obj-1", 0 ],
                    "order": 0,
                    "source": [ "obj-11", 0 ]
                }
            },
            {
                "patchline": {
                    "destination": [ "obj-43", 0 ],
                    "order": 1,
                    "source": [ "obj-11", 0 ]
                }
            },
            {
                "patchline": {
                    "destination": [ "obj-33", 0 ],
                    "order": 0,
                    "source": [ "obj-115", 0 ]
                }
            },
            {
                "patchline": {
                    "destination": [ "obj-40", 0 ],
                    "midpoints": [ 1466.5, 961.0, 1000.5, 961.0 ],
                    "order": 1,
                    "source": [ "obj-115", 0 ]
                }
            },
            {
                "patchline": {
                    "destination": [ "obj-117", 0 ],
                    "order": 0,
                    "source": [ "obj-116", 2 ]
                }
            },
            {
                "patchline": {
                    "destination": [ "obj-119", 0 ],
                    "order": 1,
                    "source": [ "obj-116", 2 ]
                }
            },
            {
                "patchline": {
                    "destination": [ "obj-50", 1 ],
                    "order": 0,
                    "source": [ "obj-117", 0 ]
                }
            },
            {
                "patchline": {
                    "destination": [ "obj-50", 0 ],
                    "order": 1,
                    "source": [ "obj-117", 0 ]
                }
            },
            {
                "patchline": {
                    "destination": [ "obj-116", 0 ],
                    "source": [ "obj-118", 0 ]
                }
            },
            {
                "patchline": {
                    "destination": [ "obj-117", 0 ],
                    "source": [ "obj-119", 0 ]
                }
            },
            {
                "patchline": {
                    "destination": [ "obj-11", 0 ],
                    "source": [ "obj-12", 0 ]
                }
            },
            {
                "patchline": {
                    "destination": [ "obj-122", 0 ],
                    "source": [ "obj-120", 0 ]
                }
            },
            {
                "patchline": {
                    "destination": [ "obj-123", 0 ],
                    "source": [ "obj-121", 0 ]
                }
            },
            {
                "patchline": {
                    "destination": [ "obj-121", 1 ],
                    "source": [ "obj-122", 1 ]
                }
            },
            {
                "patchline": {
                    "destination": [ "obj-121", 0 ],
                    "source": [ "obj-122", 0 ]
                }
            },
            {
                "patchline": {
                    "destination": [ "obj-127", 0 ],
                    "source": [ "obj-123", 0 ]
                }
            },
            {
                "patchline": {
                    "destination": [ "obj-141", 5 ],
                    "source": [ "obj-124", 0 ]
                }
            },
            {
                "patchline": {
                    "destination": [ "obj-124", 0 ],
                    "source": [ "obj-125", 0 ]
                }
            },
            {
                "patchline": {
                    "destination": [ "obj-125", 0 ],
                    "source": [ "obj-126", 0 ]
                }
            },
            {
                "patchline": {
                    "destination": [ "obj-126", 0 ],
                    "source": [ "obj-127", 0 ]
                }
            },
            {
                "patchline": {
                    "destination": [ "obj-134", 0 ],
                    "source": [ "obj-128", 0 ]
                }
            },
            {
                "patchline": {
                    "destination": [ "obj-128", 1 ],
                    "source": [ "obj-129", 1 ]
                }
            },
            {
                "patchline": {
                    "destination": [ "obj-128", 0 ],
                    "source": [ "obj-129", 0 ]
                }
            },
            {
                "patchline": {
                    "destination": [ "obj-12", 0 ],
                    "source": [ "obj-13", 0 ]
                }
            },
            {
                "patchline": {
                    "destination": [ "obj-17", 1 ],
                    "source": [ "obj-130", 1 ]
                }
            },
            {
                "patchline": {
                    "destination": [ "obj-17", 0 ],
                    "source": [ "obj-130", 0 ]
                }
            },
            {
                "patchline": {
                    "destination": [ "obj-130", 0 ],
                    "source": [ "obj-131", 0 ]
                }
            },
            {
                "patchline": {
                    "destination": [ "obj-133", 0 ],
                    "source": [ "obj-132", 0 ]
                }
            },
            {
                "patchline": {
                    "destination": [ "obj-141", 3 ],
                    "source": [ "obj-133", 0 ]
                }
            },
            {
                "patchline": {
                    "destination": [ "obj-135", 0 ],
                    "source": [ "obj-134", 0 ]
                }
            },
            {
                "patchline": {
                    "destination": [ "obj-141", 4 ],
                    "source": [ "obj-135", 0 ]
                }
            },
            {
                "patchline": {
                    "destination": [ "obj-44", 1 ],
                    "source": [ "obj-138", 0 ]
                }
            },
            {
                "patchline": {
                    "destination": [ "obj-121", 0 ],
                    "order": 1,
                    "source": [ "obj-139", 0 ]
                }
            },
            {
                "patchline": {
                    "destination": [ "obj-128", 0 ],
                    "order": 2,
                    "source": [ "obj-139", 0 ]
                }
            },
            {
                "patchline": {
                    "destination": [ "obj-17", 0 ],
                    "order": 3,
                    "source": [ "obj-139", 0 ]
                }
            },
            {
                "patchline": {
                    "destination": [ "obj-34", 1 ],
                    "order": 4,
                    "source": [ "obj-139", 0 ]
                }
            },
            {
                "patchline": {
                    "destination": [ "obj-44", 0 ],
                    "order": 0,
                    "source": [ "obj-139", 0 ]
                }
            },
            {
                "patchline": {
                    "destination": [ "obj-13", 0 ],
                    "source": [ "obj-14", 1 ]
                }
            },
            {
                "patchline": {
                    "destination": [ "obj-13", 0 ],
                    "source": [ "obj-14", 0 ]
                }
            },
            {
                "patchline": {
                    "destination": [ "obj-141", 0 ],
                    "source": [ "obj-140", 0 ]
                }
            },
            {
                "patchline": {
                    "destination": [ "obj-117", 0 ],
                    "order": 2,
                    "source": [ "obj-141", 0 ]
                }
            },
            {
                "patchline": {
                    "destination": [ "obj-136", 0 ],
                    "order": 0,
                    "source": [ "obj-141", 0 ]
                }
            },
            {
                "patchline": {
                    "destination": [ "obj-137", 0 ],
                    "order": 1,
                    "source": [ "obj-141", 0 ]
                }
            },
            {
                "patchline": {
                    "destination": [ "obj-21", 0 ],
                    "source": [ "obj-143", 0 ]
                }
            },
            {
                "patchline": {
                    "destination": [ "obj-131", 0 ],
                    "source": [ "obj-144", 0 ]
                }
            },
            {
                "patchline": {
                    "destination": [ "obj-153", 0 ],
                    "source": [ "obj-145", 0 ]
                }
            },
            {
                "patchline": {
                    "destination": [ "obj-150", 0 ],
                    "source": [ "obj-146", 0 ]
                }
            },
            {
                "patchline": {
                    "destination": [ "obj-50", 1 ],
                    "order": 0,
                    "source": [ "obj-147", 0 ]
                }
            },
            {
                "patchline": {
                    "destination": [ "obj-50", 0 ],
                    "order": 1,
                    "source": [ "obj-147", 0 ]
                }
            },
            {
                "patchline": {
                    "destination": [ "obj-145", 0 ],
                    "order": 0,
                    "source": [ "obj-148", 0 ]
                }
            },
            {
                "patchline": {
                    "destination": [ "obj-152", 0 ],
                    "order": 1,
                    "source": [ "obj-148", 0 ]
                }
            },
            {
                "patchline": {
                    "destination": [ "obj-10", 0 ],
                    "source": [ "obj-15", 0 ]
                }
            },
            {
                "patchline": {
                    "destination": [ "obj-148", 0 ],
                    "source": [ "obj-150", 0 ]
                }
            },
            {
                "patchline": {
                    "destination": [ "obj-147", 0 ],
                    "source": [ "obj-153", 0 ]
                }
            },
            {
                "patchline": {
                    "destination": [ "obj-156", 0 ],
                    "source": [ "obj-154", 0 ]
                }
            },
            {
                "patchline": {
                    "destination": [ "obj-167", 0 ],
                    "source": [ "obj-156", 0 ]
                }
            },
            {
                "patchline": {
                    "destination": [ "obj-23", 0 ],
                    "midpoints": [ 214.0, 201.0, 288.0, 201.0, 288.0, 87.0, 130.0, 87.0 ],
                    "source": [ "obj-16", 0 ]
                }
            },
            {
                "patchline": {
                    "destination": [ "obj-153", 1 ],
                    "source": [ "obj-167", 0 ]
                }
            },
            {
                "patchline": {
                    "destination": [ "obj-132", 0 ],
                    "source": [ "obj-17", 0 ]
                }
            },
            {
                "patchline": {
                    "destination": [ "obj-6", 0 ],
                    "source": [ "obj-18", 0 ]
                }
            },
            {
                "patchline": {
                    "destination": [ "obj-30", 0 ],
                    "source": [ "obj-20", 0 ]
                }
            },
            {
                "patchline": {
                    "destination": [ "obj-32", 0 ],
                    "source": [ "obj-20", 1 ]
                }
            },
            {
                "patchline": {
                    "destination": [ "obj-129", 0 ],
                    "source": [ "obj-21", 0 ]
                }
            },
            {
                "patchline": {
                    "destination": [ "obj-24", 0 ],
                    "source": [ "obj-23", 1 ]
                }
            },
            {
                "patchline": {
                    "destination": [ "obj-28", 0 ],
                    "midpoints": [ 195.0, 140.0, 41.0, 140.0 ],
                    "source": [ "obj-24", 0 ]
                }
            },
            {
                "patchline": {
                    "destination": [ "obj-27", 0 ],
                    "source": [ "obj-26", 0 ]
                }
            },
            {
                "patchline": {
                    "destination": [ "obj-28", 0 ],
                    "source": [ "obj-27", 0 ]
                }
            },
            {
                "patchline": {
                    "destination": [ "obj-14", 0 ],
                    "order": 1,
                    "source": [ "obj-28", 0 ]
                }
            },
            {
                "patchline": {
                    "destination": [ "obj-16", 0 ],
                    "source": [ "obj-28", 1 ]
                }
            },
            {
                "patchline": {
                    "destination": [ "obj-19", 1 ],
                    "order": 0,
                    "source": [ "obj-28", 0 ]
                }
            },
            {
                "patchline": {
                    "destination": [ "obj-31", 0 ],
                    "source": [ "obj-29", 0 ]
                }
            },
            {
                "patchline": {
                    "destination": [ "obj-144", 0 ],
                    "order": 0,
                    "source": [ "obj-30", 0 ]
                }
            },
            {
                "patchline": {
                    "destination": [ "obj-146", 0 ],
                    "order": 1,
                    "source": [ "obj-30", 0 ]
                }
            },
            {
                "patchline": {
                    "destination": [ "obj-36", 0 ],
                    "order": 2,
                    "source": [ "obj-30", 0 ]
                }
            },
            {
                "patchline": {
                    "destination": [ "obj-63", 0 ],
                    "order": 3,
                    "source": [ "obj-30", 0 ]
                }
            },
            {
                "patchline": {
                    "destination": [ "obj-143", 0 ],
                    "order": 0,
                    "source": [ "obj-32", 0 ]
                }
            },
            {
                "patchline": {
                    "destination": [ "obj-154", 0 ],
                    "order": 1,
                    "source": [ "obj-32", 0 ]
                }
            },
            {
                "patchline": {
                    "destination": [ "obj-37", 0 ],
                    "order": 2,
                    "source": [ "obj-32", 0 ]
                }
            },
            {
                "patchline": {
                    "destination": [ "obj-63", 1 ],
                    "order": 3,
                    "source": [ "obj-32", 0 ]
                }
            },
            {
                "patchline": {
                    "destination": [ "obj-118", 0 ],
                    "source": [ "obj-33", 0 ]
                }
            },
            {
                "patchline": {
                    "destination": [ "obj-35", 0 ],
                    "source": [ "obj-34", 0 ]
                }
            },
            {
                "patchline": {
                    "destination": [ "obj-140", 0 ],
                    "source": [ "obj-35", 0 ]
                }
            },
            {
                "patchline": {
                    "destination": [ "obj-38", 0 ],
                    "source": [ "obj-36", 0 ]
                }
            },
            {
                "patchline": {
                    "destination": [ "obj-39", 0 ],
                    "source": [ "obj-37", 0 ]
                }
            },
            {
                "patchline": {
                    "destination": [ "obj-42", 0 ],
                    "source": [ "obj-38", 1 ]
                }
            },
            {
                "patchline": {
                    "destination": [ "obj-41", 0 ],
                    "source": [ "obj-39", 1 ]
                }
            },
            {
                "patchline": {
                    "destination": [ "obj-119", 0 ],
                    "source": [ "obj-40", 0 ]
                }
            },
            {
                "patchline": {
                    "destination": [ "obj-54", 0 ],
                    "order": 0,
                    "source": [ "obj-41", 0 ]
                }
            },
            {
                "patchline": {
                    "destination": [ "obj-58", 0 ],
                    "order": 1,
                    "source": [ "obj-41", 0 ]
                }
            },
            {
                "patchline": {
                    "destination": [ "obj-49", 0 ],
                    "order": 0,
                    "source": [ "obj-42", 0 ]
                }
            },
            {
                "patchline": {
                    "destination": [ "obj-57", 0 ],
                    "order": 1,
                    "source": [ "obj-42", 0 ]
                }
            },
            {
                "patchline": {
                    "destination": [ "obj-15", 0 ],
                    "order": 1,
                    "source": [ "obj-43", 0 ]
                }
            },
            {
                "patchline": {
                    "destination": [ "obj-22", 0 ],
                    "order": 1,
                    "source": [ "obj-43", 2 ]
                }
            },
            {
                "patchline": {
                    "destination": [ "obj-3", 1 ],
                    "order": 0,
                    "source": [ "obj-43", 0 ]
                }
            },
            {
                "patchline": {
                    "destination": [ "obj-4", 1 ],
                    "source": [ "obj-43", 1 ]
                }
            },
            {
                "patchline": {
                    "destination": [ "obj-5", 1 ],
                    "order": 0,
                    "source": [ "obj-43", 2 ]
                }
            },
            {
                "patchline": {
                    "destination": [ "obj-125", 1 ],
                    "source": [ "obj-44", 0 ]
                }
            },
            {
                "patchline": {
                    "destination": [ "obj-53", 1 ],
                    "source": [ "obj-45", 1 ]
                }
            },
            {
                "patchline": {
                    "destination": [ "obj-53", 0 ],
                    "source": [ "obj-45", 0 ]
                }
            },
            {
                "patchline": {
                    "destination": [ "obj-53", 1 ],
                    "source": [ "obj-47", 1 ]
                }
            },
            {
                "patchline": {
                    "destination": [ "obj-53", 0 ],
                    "source": [ "obj-47", 0 ]
                }
            },
            {
                "patchline": {
                    "destination": [ "obj-34", 0 ],
                    "source": [ "obj-48", 0 ]
                }
            },
            {
                "patchline": {
                    "destination": [ "obj-47", 0 ],
                    "source": [ "obj-49", 0 ]
                }
            },
            {
                "patchline": {
                    "destination": [ "obj-50", 1 ],
                    "source": [ "obj-53", 1 ]
                }
            },
            {
                "patchline": {
                    "destination": [ "obj-50", 0 ],
                    "source": [ "obj-53", 0 ]
                }
            },
            {
                "patchline": {
                    "destination": [ "obj-45", 0 ],
                    "source": [ "obj-54", 0 ]
                }
            },
            {
                "patchline": {
                    "destination": [ "obj-56", 1 ],
                    "source": [ "obj-55", 1 ]
                }
            },
            {
                "patchline": {
                    "destination": [ "obj-56", 0 ],
                    "source": [ "obj-55", 0 ]
                }
            },
            {
                "patchline": {
                    "destination": [ "obj-55", 0 ],
                    "source": [ "obj-57", 0 ]
                }
            },
            {
                "patchline": {
                    "destination": [ "obj-60", 0 ],
                    "source": [ "obj-58", 0 ]
                }
            },
            {
                "patchline": {
                    "destination": [ "obj-20", 0 ],
                    "source": [ "obj-6", 0 ]
                }
            },
            {
                "patchline": {
                    "destination": [ "obj-59", 1 ],
                    "source": [ "obj-60", 1 ]
                }
            },
            {
                "patchline": {
                    "destination": [ "obj-59", 0 ],
                    "source": [ "obj-60", 0 ]
                }
            },
            {
                "patchline": {
                    "destination": [ "obj-64", 0 ],
                    "source": [ "obj-61", 0 ]
                }
            },
            {
                "patchline": {
                    "destination": [ "obj-66", 0 ],
                    "source": [ "obj-63", 0 ]
                }
            },
            {
                "patchline": {
                    "destination": [ "obj-67", 0 ],
                    "source": [ "obj-63", 1 ]
                }
            },
            {
                "patchline": {
                    "destination": [ "obj-77", 0 ],
                    "source": [ "obj-64", 0 ]
                }
            },
            {
                "patchline": {
                    "destination": [ "obj-120", 0 ],
                    "order": 0,
                    "source": [ "obj-66", 0 ]
                }
            },
            {
                "patchline": {
                    "destination": [ "obj-68", 0 ],
                    "order": 1,
                    "source": [ "obj-66", 0 ]
                }
            },
            {
                "patchline": {
                    "destination": [ "obj-139", 0 ],
                    "source": [ "obj-67", 0 ]
                }
            },
            {
                "patchline": {
                    "destination": [ "obj-55", 1 ],
                    "order": 1,
                    "source": [ "obj-68", 0 ]
                }
            },
            {
                "patchline": {
                    "destination": [ "obj-60", 1 ],
                    "order": 0,
                    "source": [ "obj-68", 0 ]
                }
            },
            {
                "patchline": {
                    "destination": [ "obj-23", 0 ],
                    "source": [ "obj-77", 0 ]
                }
            }
        ],
        "parameters": {
            "obj-53": [ "live.gain~", "live.gain~", 0 ],
            "parameterbanks": {
                "0": {
                    "index": 0,
                    "name": "",
                    "parameters": [ "-", "-", "-", "-", "-", "-", "-", "-" ],
                    "buttons": [ "-", "-", "-", "-", "-", "-", "-", "-" ]
                }
            },
            "inherited_shortname": 1
        },
        "autosave": 0
    }
}